<svg width="36" height="36" viewBox="0 0 36 36" fill="none" xmlns="http://www.w3.org/2000/svg">
<g clip-path="url(#clip0_1_11)">
<path d="M6.6617 31.8949C6.34047 31.8949 6.08105 31.6352 6.08105 31.3143V28.5148C6.08105 28.1939 6.34047 27.9342 6.6617 27.9342C6.98264 27.9342 7.24234 28.1939 7.24234 28.5148V31.3143C7.24234 31.6346 6.98207 31.8949 6.6617 31.8949Z" fill="#0156AD"/>
<path d="M18.8854 32.7489H0.580644C0.259418 32.7489 0 32.4894 0 32.1682V26.4814C0 21.2434 3.21225 16.5572 7.99264 14.8215C8.19053 14.7489 8.41054 14.7903 8.56846 14.9267C9.8871 16.0559 11.5508 16.6785 13.2539 16.6785C14.9649 16.6785 16.6337 16.0525 17.9529 14.915C18.1119 14.7787 18.3339 14.7373 18.5307 14.8093C19.7651 15.2584 20.9154 15.9116 21.9494 16.7517C22.0911 16.8659 22.1708 17.0409 22.1637 17.2232C22.1575 17.4049 22.0662 17.5739 21.917 17.6779L21.8467 17.7273L21.5275 17.2719L21.2179 17.6535C20.3707 16.9654 19.4382 16.4166 18.4411 16.0182C16.9566 17.1954 15.1282 17.8404 13.2539 17.8404C11.388 17.8404 9.56503 17.1999 8.08251 16.0304C3.92927 17.6859 1.16129 21.8434 1.16129 26.4814V31.5876H18.8854V32.7489Z" fill="#0156AD"/>
<path d="M13.254 17.8398C8.53091 17.8398 4.68896 13.838 4.68896 8.92007C4.68896 4.00189 8.53091 4.57764e-05 13.254 4.57764e-05C17.9769 4.57764e-05 21.8197 4.00133 21.8197 8.91922C21.8197 13.8374 17.9769 17.8398 13.254 17.8398ZM13.254 1.16133C9.17138 1.16133 5.85025 4.64179 5.85025 8.91922C5.85025 13.1975 9.17138 16.678 13.254 16.678C17.3364 16.678 20.6584 13.1975 20.6584 8.91922C20.6584 4.64179 17.3364 1.16133 13.254 1.16133Z" fill="#0156AD"/>
<path d="M25.8998 29.8456C25.6576 29.8456 25.4144 29.8238 25.1723 29.779C24.1068 29.5811 23.176 28.9667 22.55 28.0476C21.9277 27.1307 21.6912 26.032 21.8846 24.9555C22.0791 23.8767 22.6835 22.9332 23.5866 22.2978C24.493 21.6611 25.58 21.4212 26.6466 21.6168C27.7126 21.815 28.6428 22.4297 29.2674 23.3488L29.2722 23.3554C29.8883 24.2878 30.1228 25.3842 29.9337 26.4403C29.7389 27.5185 29.1353 28.4621 28.2317 29.0974C27.5308 29.5896 26.7225 29.8456 25.8998 29.8456ZM25.9202 22.7109C25.3336 22.7109 24.7566 22.8944 24.2548 23.2479C23.6033 23.7055 23.1678 24.3848 23.0286 25.1611C22.8891 25.9368 23.0609 26.7301 23.5117 27.3949C23.9611 28.0555 24.6265 28.4964 25.3849 28.6376C26.1396 28.7768 26.9148 28.6038 27.564 28.1474C28.2155 27.6898 28.651 27.0105 28.7902 26.2348C28.9266 25.4747 28.7542 24.6802 28.3048 23.9981C27.8566 23.3392 27.1923 22.8989 26.4345 22.7586C26.2627 22.7271 26.0914 22.7109 25.9202 22.7109Z" fill="#0156AD"/>
<path d="M26.0468 36C25.9731 36 25.8983 35.9931 25.824 35.9795L22.4207 35.349C21.7705 35.2282 21.3535 34.6198 21.4714 33.9637L21.743 32.4517C21.7053 32.4268 21.6693 32.4013 21.6359 32.3757L21.5922 32.3471L20.3362 33.2303C20.1091 33.4041 19.7922 33.4823 19.4845 33.4307C19.1667 33.3788 18.8812 33.196 18.7001 32.9289L16.7387 30.0444C16.5674 29.8116 16.4943 29.5015 16.5459 29.189C16.5975 28.8737 16.7758 28.5885 17.0358 28.4062L18.2651 27.5191C18.2552 27.4715 18.247 27.4261 18.2396 27.3839C18.2354 27.3623 18.232 27.3402 18.2286 27.3175L16.7444 27.0425C16.4401 26.9855 16.1665 26.8032 15.9947 26.5412C15.8184 26.2719 15.762 25.9501 15.8345 25.6348L16.4512 22.2034C16.5087 21.8828 16.6823 21.608 16.9411 21.4289C17.1985 21.2505 17.5133 21.1847 17.828 21.2429L19.3011 21.5165C19.3241 21.4799 19.3479 21.445 19.3717 21.4124L19.4083 21.3532L18.5322 20.0649C18.3615 19.8332 18.2884 19.5236 18.3389 19.2112C18.3905 18.8959 18.5688 18.6104 18.8282 18.4273L21.6682 16.431C21.8959 16.2581 22.2134 16.1815 22.5202 16.2308C22.8377 16.2824 23.1235 16.4653 23.3047 16.7324L24.1762 18.0139C24.1924 18.0099 24.2085 18.0054 24.2244 18.0011C24.2434 17.9955 24.2632 17.9906 24.2834 17.9872C24.3038 17.9833 24.3248 17.9796 24.3457 17.9767L24.6179 16.4619C24.6766 16.1401 24.8501 15.8662 25.1092 15.6868C25.3658 15.509 25.68 15.4441 25.9952 15.5016L29.3821 16.1293C30.0325 16.2498 30.4493 16.8586 30.3314 17.5146L30.0592 19.0266C30.0975 19.0516 30.1335 19.0771 30.1672 19.1026L30.2106 19.1312L31.4666 18.2481C31.6942 18.0748 32.0118 17.9977 32.3185 18.0476C32.6361 18.0992 32.9219 18.2821 33.103 18.5495L35.0491 21.4328C35.2186 21.6628 35.2918 21.9724 35.2413 22.2845C35.1897 22.5998 35.0114 22.8856 34.752 23.0684L33.4838 23.9593C33.4889 23.9825 33.4943 24.0052 33.4999 24.0264C33.5053 24.0452 33.5099 24.0636 33.5127 24.0834C33.517 24.1061 33.5209 24.1288 33.5243 24.152L35.008 24.4271C35.6025 24.5376 36.019 25.0879 35.9992 25.7344C35.998 25.7627 35.9952 25.7911 35.9898 25.8191L35.368 29.2792C35.3099 29.6001 35.1364 29.8748 34.8767 30.0543C34.619 30.2318 34.3054 30.2953 33.9902 30.2389L32.5181 29.9653C32.4949 30.0019 32.4711 30.0367 32.4472 30.0693L32.4107 30.128L33.287 31.4169C33.4583 31.6499 33.5314 31.9598 33.4798 32.2723C33.4279 32.5875 33.2499 32.8728 32.9896 33.0551L30.1508 35.0507C29.9234 35.2242 29.607 35.3019 29.2991 35.2515C28.9821 35.1993 28.6963 35.017 28.5146 34.7505L27.6473 33.4741C27.6093 33.4818 27.5722 33.4888 27.5362 33.4956C27.5155 33.499 27.495 33.5033 27.4735 33.5061L27.2013 35.0204C27.1438 35.3411 26.9703 35.6155 26.7111 35.795C26.5144 35.9296 26.285 36 26.0468 36ZM21.5968 31.0534C21.7391 31.0534 21.8808 31.1059 21.9917 31.2085C22.0509 31.2632 22.119 31.3043 22.1868 31.3491L22.3197 31.4373C22.3778 31.4804 22.4637 31.5388 22.6322 31.6168C22.872 31.7276 23.0073 31.9865 22.9602 32.2467L22.6149 34.1693L26.0358 34.8375L26.4041 32.8912C26.4446 32.6647 26.6142 32.4849 26.8379 32.4296C26.9572 32.4007 27.0746 32.3848 27.188 32.3709C27.2353 32.3647 27.2818 32.3593 27.3266 32.3514C27.397 32.3383 27.5676 32.3066 27.6774 32.2629C27.9317 32.1614 28.2214 32.2502 28.3742 32.475L29.4757 34.0956L32.3219 32.1033L31.2239 30.4484C31.0742 30.2278 31.0932 29.9335 31.2715 29.7348C31.3257 29.6744 31.3662 29.6047 31.4104 29.5352L31.4975 29.4005C31.5397 29.3418 31.5978 29.2528 31.6764 29.0793C31.7855 28.8355 32.0438 28.6997 32.312 28.7459L34.2025 29.0966L34.8373 25.6663C34.8319 25.6071 34.807 25.5716 34.7959 25.5693L32.9054 25.2186C32.6797 25.1767 32.4997 25.0054 32.4467 24.7815C32.4178 24.6612 32.4033 24.5439 32.3894 24.4313C32.3846 24.3899 32.3801 24.3488 32.3741 24.31C32.3585 24.2501 32.3446 24.1875 32.3319 24.1228C32.318 24.0568 32.3063 23.9876 32.2825 23.9255C32.1844 23.6763 32.2703 23.3931 32.4886 23.2385L34.0831 22.1181L32.1408 19.2001L30.54 20.3192C30.3152 20.4765 30.0121 20.4561 29.8111 20.2698C29.7521 20.2151 29.6841 20.174 29.616 20.1292L29.4831 20.041C29.425 19.9979 29.3385 19.9387 29.1706 19.8616C28.9305 19.7519 28.795 19.4916 28.842 19.2316L29.1882 17.3091L25.7837 16.6437L25.4157 18.59C25.3752 18.8154 25.2062 18.9957 24.9842 19.051C24.864 19.0805 24.7475 19.0964 24.6341 19.1103C24.5947 19.1154 24.5558 19.1202 24.5187 19.1258C24.4589 19.1417 24.3962 19.1562 24.333 19.1695C24.2695 19.1828 24.2034 19.1945 24.1453 19.2177C23.8921 19.3229 23.6007 19.2333 23.4461 19.0068L22.3447 17.3862L19.4984 19.3779L20.5965 21.0328C20.7468 21.2539 20.7269 21.5491 20.5477 21.7475C20.4942 21.8074 20.4542 21.876 20.4105 21.9449L20.3229 22.0809C20.2807 22.1394 20.2225 22.2284 20.144 22.4019C20.0349 22.6457 19.7783 22.7815 19.5084 22.7353L17.6176 22.3846L16.9737 25.8685L18.8486 26.2504C19.074 26.2923 19.2535 26.463 19.3073 26.6858C19.3363 26.8072 19.3516 26.9251 19.3655 27.0388C19.3711 27.0876 19.3771 27.1352 19.3845 27.1811C19.3967 27.2503 19.4276 27.4272 19.4724 27.5429C19.5693 27.7896 19.4862 28.0703 19.2713 28.2251L17.71 29.3518L19.6615 32.2751L21.2636 31.158C21.364 31.0883 21.4808 31.0534 21.5968 31.0534Z" fill="#0156AD"/>
</g>
<defs>
<clipPath id="clip0_1_11">
<rect width="36" height="36" fill="white"/>
</clipPath>
</defs>
</svg>
