<svg width="19" height="16" viewBox="0 0 19 16" fill="none" xmlns="http://www.w3.org/2000/svg">
<path fill-rule="evenodd" clip-rule="evenodd" d="M0 7.65995C0 7.05562 0.489924 6.56567 1.09428 6.56567H17.1437C17.7481 6.56567 18.238 7.05562 18.238 7.65995C18.238 8.26429 17.7481 8.75423 17.1437 8.75423H1.09428C0.489924 8.75423 0 8.26429 0 7.65995Z" fill="#696969"/>
<path fill-rule="evenodd" clip-rule="evenodd" d="M8.43376 0.320509C8.86104 0.747854 8.86104 1.44071 8.43376 1.86805L2.64183 7.65996L8.43376 13.4518C8.86104 13.8792 8.86104 14.5721 8.43376 14.9994C8.00641 15.4267 7.31351 15.4267 6.88616 14.9994L0.320509 8.43376C-0.106836 8.00641 -0.106836 7.31351 0.320509 6.88616L6.88616 0.320509C7.31351 -0.106836 8.00641 -0.106836 8.43376 0.320509Z" fill="#696969"/>
</svg>
