<svg width="84" height="72" viewBox="0 0 84 72" fill="none" xmlns="http://www.w3.org/2000/svg">
<path d="M68.4407 63.017C68.4407 66.7612 65.4053 69.7966 61.661 69.7966H8.77966C5.03542 69.7966 2 66.7612 2 63.017V29.1187C2 25.3744 5.03542 22.339 8.77966 22.339H61.661C65.4053 22.339 68.4407 25.3744 68.4407 29.1187V63.017Z" stroke="#A19FE2" stroke-width="3" stroke-miterlimit="10" stroke-linecap="round" stroke-linejoin="round"/>
<path d="M15.5596 8.77966C15.5596 5.03542 18.595 2 22.3392 2H75.2206C78.9648 2 82.0002 5.03542 82.0002 8.77966V42.678C82.0002 46.4222 78.9648 49.4576 75.2206 49.4576H68.4409" stroke="#A19FE2" stroke-width="3" stroke-miterlimit="10" stroke-linecap="round" stroke-linejoin="round"/>
<path d="M15.5596 35.8983H68.4409" stroke="#A19FE2" stroke-width="3" stroke-miterlimit="10" stroke-linecap="round" stroke-linejoin="round"/>
<path d="M41.3223 56.2373H54.8816" stroke="#A19FE2" stroke-width="3" stroke-miterlimit="10" stroke-linecap="round" stroke-linejoin="round"/>
</svg>
