<svg width="10" height="13" viewBox="0 0 10 13" fill="none" xmlns="http://www.w3.org/2000/svg">
<path d="M1.06384 5.16225L5.1216 0.367676L9.17936 5.16225H1.06384Z" fill="#3E3E3E"/>
<path d="M1.31487 5.3983C1.77317 4.85891 2.22795 4.31952 2.68626 3.78013C3.41602 2.91993 4.14226 2.05973 4.87202 1.19952C5.04124 1.0021 5.20693 0.804677 5.37615 0.603728C5.21046 0.603728 5.04476 0.603728 4.87907 0.603728C5.33737 1.14312 5.79215 1.68251 6.25046 2.2219C6.98022 3.0821 7.70646 3.9423 8.43622 4.80251C8.60544 4.99993 8.77113 5.19735 8.94035 5.3983C9.02496 5.19735 9.10605 4.9964 9.19066 4.79546C8.27757 4.79546 7.36097 4.79546 6.44788 4.79546C4.99188 4.79546 3.53588 4.79546 2.07636 4.79546C1.74144 4.79546 1.40653 4.79546 1.07514 4.79546C0.620359 4.79546 0.620359 5.50054 1.07514 5.50054C1.98822 5.50054 2.90483 5.50054 3.81792 5.50054C5.27392 5.50054 6.72991 5.50054 8.18944 5.50054C8.52435 5.50054 8.85927 5.50054 9.19066 5.50054C9.515 5.50054 9.63134 5.12332 9.44096 4.89769C8.98266 4.3583 8.52788 3.81891 8.06957 3.27952C7.33981 2.41932 6.61358 1.55912 5.88381 0.698915C5.71459 0.501491 5.5489 0.304068 5.37968 0.103119C5.26334 -0.0343729 4.99541 -0.0343729 4.88259 0.103119C4.42429 0.642508 3.96951 1.1819 3.51121 1.72129C2.78144 2.58149 2.05521 3.44169 1.32544 4.3019C1.15622 4.49932 0.990529 4.69674 0.821308 4.89769C0.697919 5.04223 0.680291 5.25376 0.821308 5.39478C0.941173 5.52522 1.19148 5.54637 1.31487 5.3983Z" fill="#3E3E3E"/>
<path d="M1.06384 7.84131L5.1216 12.6359L9.17936 7.84131H1.06384Z" fill="#3E3E3E"/>
<path d="M0.817317 8.10236C1.27562 8.64175 1.7304 9.18114 2.18871 9.72053C2.91847 10.5807 3.6447 11.4409 4.37447 12.3011C4.54369 12.4986 4.70938 12.696 4.8786 12.8969C4.99494 13.0344 5.26287 13.0344 5.37569 12.8969C5.83399 12.3575 6.28877 11.8182 6.74708 11.2788C7.47684 10.4186 8.20307 9.55836 8.93284 8.69815C9.10206 8.50073 9.26775 8.30331 9.43697 8.10236C9.62734 7.87673 9.511 7.49951 9.18667 7.49951C8.27358 7.49951 7.35697 7.49951 6.44389 7.49951C4.98789 7.49951 3.53189 7.49951 2.07237 7.49951C1.73745 7.49951 1.40254 7.49951 1.07115 7.49951C0.616368 7.49951 0.616368 8.2046 1.07115 8.2046C1.98423 8.2046 2.90084 8.2046 3.81392 8.2046C5.26992 8.2046 6.72592 8.2046 8.18545 8.2046C8.52036 8.2046 8.85528 8.2046 9.18667 8.2046C9.10206 8.00365 9.02097 7.8027 8.93636 7.60175C8.47806 8.14114 8.02328 8.68053 7.56497 9.21992C6.83521 10.0801 6.10897 10.9403 5.37921 11.8005C5.20999 11.9979 5.0443 12.1954 4.87508 12.3963C5.04077 12.3963 5.20647 12.3963 5.37216 12.3963C4.91386 11.8569 4.45908 11.3175 4.00077 10.7782C3.27101 9.91795 2.54477 9.05775 1.81501 8.19755C1.64579 8.00012 1.4801 7.8027 1.31088 7.60175C1.18749 7.45721 0.940707 7.47483 0.813791 7.60175C0.672775 7.74629 0.693927 7.95782 0.817317 8.10236Z" fill="#3E3E3E"/>
</svg>
