<svg width="10" height="13" viewBox="0 0 10 13" fill="none" xmlns="http://www.w3.org/2000/svg">
<path d="M0.797424 5.16225L4.85518 0.367676L8.91294 5.16225H0.797424Z" fill="#3E3E3E"/>
<path d="M1.04845 5.3983C1.50675 4.85891 1.96153 4.31952 2.41984 3.78013C3.1496 2.91993 3.87584 2.05973 4.6056 1.19952C4.77482 1.0021 4.94051 0.804677 5.10973 0.603728C4.94404 0.603728 4.77834 0.603728 4.61265 0.603728C5.07095 1.14312 5.52573 1.68251 5.98404 2.2219C6.7138 3.0821 7.44004 3.9423 8.1698 4.80251C8.33902 4.99993 8.50471 5.19735 8.67393 5.3983C8.75854 5.19735 8.83963 4.9964 8.92424 4.79546C8.01116 4.79546 7.09455 4.79546 6.18146 4.79546C4.72546 4.79546 3.26946 4.79546 1.80994 4.79546C1.47502 4.79546 1.14011 4.79546 0.80872 4.79546C0.353941 4.79546 0.353941 5.50054 0.80872 5.50054C1.7218 5.50054 2.63841 5.50054 3.5515 5.50054C5.0075 5.50054 6.4635 5.50054 7.92302 5.50054C8.25794 5.50054 8.59285 5.50054 8.92424 5.50054C9.24858 5.50054 9.36492 5.12332 9.17454 4.89769C8.71624 4.3583 8.26146 3.81891 7.80316 3.27952C7.07339 2.41932 6.34716 1.55912 5.61739 0.698915C5.44817 0.501491 5.28248 0.304068 5.11326 0.103119C4.99692 -0.0343729 4.72899 -0.0343729 4.61618 0.103119C4.15787 0.642508 3.70309 1.1819 3.24479 1.72129C2.51502 2.58149 1.78879 3.44169 1.05903 4.3019C0.889805 4.49932 0.72411 4.69674 0.55489 4.89769C0.4315 5.04223 0.413873 5.25376 0.55489 5.39478C0.674754 5.52522 0.925059 5.54637 1.04845 5.3983Z" fill="#3E3E3E"/>
<path d="M0.797424 7.84131L4.85518 12.6359L8.91294 7.84131H0.797424Z" fill="#3E3E3E"/>
<path d="M0.550898 8.10236C1.0092 8.64175 1.46398 9.18114 1.92229 9.72053C2.65205 10.5807 3.37829 11.4409 4.10805 12.3011C4.27727 12.4986 4.44296 12.696 4.61218 12.8969C4.72852 13.0344 4.99645 13.0344 5.10927 12.8969C5.56757 12.3575 6.02235 11.8182 6.48066 11.2788C7.21042 10.4186 7.93666 9.55836 8.66642 8.69815C8.83564 8.50073 9.00133 8.30331 9.17055 8.10236C9.36093 7.87673 9.24459 7.49951 8.92025 7.49951C8.00716 7.49951 7.09055 7.49951 6.17747 7.49951C4.72147 7.49951 3.26547 7.49951 1.80595 7.49951C1.47103 7.49951 1.13612 7.49951 0.804729 7.49951C0.34995 7.49951 0.34995 8.2046 0.804729 8.2046C1.71781 8.2046 2.63442 8.2046 3.54751 8.2046C5.0035 8.2046 6.4595 8.2046 7.91903 8.2046C8.25394 8.2046 8.58886 8.2046 8.92025 8.2046C8.83564 8.00365 8.75455 7.8027 8.66994 7.60175C8.21164 8.14114 7.75686 8.68053 7.29855 9.21992C6.56879 10.0801 5.84255 10.9403 5.11279 11.8005C4.94357 11.9979 4.77788 12.1954 4.60866 12.3963C4.77435 12.3963 4.94005 12.3963 5.10574 12.3963C4.64744 11.8569 4.19266 11.3175 3.73435 10.7782C3.00459 9.91795 2.27835 9.05775 1.54859 8.19755C1.37937 8.00012 1.21368 7.8027 1.04446 7.60175C0.921067 7.45721 0.674288 7.47483 0.547373 7.60175C0.406356 7.74629 0.427509 7.95782 0.550898 8.10236Z" fill="#3E3E3E"/>
</svg>
