<svg width="65" height="66" viewBox="0 0 65 66" fill="none" xmlns="http://www.w3.org/2000/svg">
<path d="M34.3232 11.8889C35.093 10.5556 37.0175 10.5556 37.7873 11.8889L58.9568 48.5556C59.7266 49.8889 58.7644 51.5556 57.2248 51.5556H14.8858C13.3462 51.5556 12.3839 49.8889 13.1537 48.5556L34.3232 11.8889Z" fill="#E06F6C"/>
<path fill-rule="evenodd" clip-rule="evenodd" d="M11.0956 48.6014C7.44518 48.6014 5.16963 44.6429 6.99481 41.4903L24.8437 10.6518C26.6689 7.49921 31.22 7.49921 33.0452 10.6518L50.8941 41.4903C52.7192 44.6429 50.4437 48.6014 46.7933 48.6014H11.0956ZM46.7933 43.8607L28.9444 13.0222L11.0956 43.8607H46.7933ZM26.5741 24.8977V29.6385C26.5741 30.9422 27.6407 32.0088 28.9444 32.0088C30.2481 32.0088 31.3148 30.9422 31.3148 29.6385V24.8977C31.3148 23.594 30.2481 22.5274 28.9444 22.5274C27.6407 22.5274 26.5741 23.594 26.5741 24.8977ZM31.3148 41.4903V36.7496H26.5741V41.4903H31.3148Z" fill="#2C3E50"/>
</svg>
