<svg width="32" height="32" viewBox="0 0 32 32" fill="none" xmlns="http://www.w3.org/2000/svg">
<path d="M9.97912 6.2439H25.3101C26.0494 6.2439 26.7584 6.52713 27.2812 7.03129C27.8039 7.53546 28.0976 8.21925 28.0976 8.93224V25.0623C28.0976 25.7753 27.8039 26.4591 27.2812 26.9633C26.7584 27.4674 26.0494 27.7507 25.3101 27.7507H9.97912C9.60948 27.7507 9.25498 27.6091 8.9936 27.357C8.73223 27.1049 8.58539 26.763 8.58539 26.4065V7.58807C8.58539 7.23157 8.73223 6.88968 8.9936 6.6376C9.25498 6.38551 9.60948 6.2439 9.97912 6.2439V6.2439ZM14.1603 6.2439V30.439Z" fill="#A1D5FD"/>
<path d="M10.2578 3.90247V28.0976M15.8325 9.27904H18.62M15.8325 14.6557H18.62M6.07665 3.90247H21.4077C22.1469 3.90247 22.8559 4.1857 23.3787 4.68986C23.9014 5.19403 24.1951 5.87782 24.1951 6.59081V22.7209C24.1951 23.4339 23.9014 24.1177 23.3787 24.6218C22.8559 25.126 22.1469 25.4092 21.4077 25.4092H6.07665C5.70701 25.4092 5.35251 25.2676 5.09114 25.0155C4.82976 24.7635 4.68292 24.4216 4.68292 24.0651V5.24664C4.68292 4.89014 4.82976 4.54825 5.09114 4.29617C5.35251 4.04408 5.70701 3.90247 6.07665 3.90247Z" stroke="#2C3E50" stroke-width="2" stroke-linecap="round" stroke-linejoin="round"/>
</svg>
