<svg width="10" height="13" viewBox="0 0 10 13" fill="none" xmlns="http://www.w3.org/2000/svg">
<path d="M0.980835 5.16225L5.0386 0.367676L9.09636 5.16225H0.980835Z" fill="#3E3E3E"/>
<path d="M1.23186 5.3983C1.69016 4.85891 2.14494 4.31952 2.60325 3.78013C3.33301 2.91993 4.05925 2.05973 4.78901 1.19952C4.95823 1.0021 5.12392 0.804677 5.29315 0.603728C5.12745 0.603728 4.96176 0.603728 4.79606 0.603728C5.25437 1.14312 5.70914 1.68251 6.16745 2.2219C6.89721 3.0821 7.62345 3.9423 8.35321 4.80251C8.52243 4.99993 8.68813 5.19735 8.85735 5.3983C8.94196 5.19735 9.02304 4.9964 9.10765 4.79546C8.19457 4.79546 7.27796 4.79546 6.36487 4.79546C4.90887 4.79546 3.45288 4.79546 1.99335 4.79546C1.65844 4.79546 1.32352 4.79546 0.992131 4.79546C0.537351 4.79546 0.537351 5.50054 0.992131 5.50054C1.90521 5.50054 2.82182 5.50054 3.73491 5.50054C5.19091 5.50054 6.64691 5.50054 8.10643 5.50054C8.44135 5.50054 8.77626 5.50054 9.10765 5.50054C9.43199 5.50054 9.54833 5.12332 9.35796 4.89769C8.89965 4.3583 8.44487 3.81891 7.98657 3.27952C7.2568 2.41932 6.53057 1.55912 5.80081 0.698915C5.63159 0.501491 5.46589 0.304068 5.29667 0.103119C5.18033 -0.0343729 4.9124 -0.0343729 4.79959 0.103119C4.34128 0.642508 3.8865 1.1819 3.4282 1.72129C2.69843 2.58149 1.9722 3.44169 1.24244 4.3019C1.07322 4.49932 0.907521 4.69674 0.7383 4.89769C0.614911 5.04223 0.597284 5.25376 0.7383 5.39478C0.858165 5.52522 1.10847 5.54637 1.23186 5.3983Z" fill="#3E3E3E"/>
<path d="M0.980835 7.84131L5.0386 12.6359L9.09636 7.84131H0.980835Z" fill="#3E3E3E"/>
<path d="M0.734309 8.10236C1.19261 8.64175 1.64739 9.18114 2.1057 9.72053C2.83546 10.5807 3.5617 11.4409 4.29146 12.3011C4.46068 12.4986 4.62637 12.696 4.79559 12.8969C4.91193 13.0344 5.17987 13.0344 5.29268 12.8969C5.75098 12.3575 6.20576 11.8182 6.66407 11.2788C7.39383 10.4186 8.12007 9.55836 8.84983 8.69815C9.01905 8.50073 9.18474 8.30331 9.35396 8.10236C9.54434 7.87673 9.428 7.49951 9.10366 7.49951C8.19057 7.49951 7.27396 7.49951 6.36088 7.49951C4.90488 7.49951 3.44888 7.49951 1.98936 7.49951C1.65444 7.49951 1.31953 7.49951 0.98814 7.49951C0.53336 7.49951 0.53336 8.2046 0.98814 8.2046C1.90122 8.2046 2.81783 8.2046 3.73092 8.2046C5.18692 8.2046 6.64291 8.2046 8.10244 8.2046C8.43735 8.2046 8.77227 8.2046 9.10366 8.2046C9.01905 8.00365 8.93796 7.8027 8.85335 7.60175C8.39505 8.14114 7.94027 8.68053 7.48196 9.21992C6.7522 10.0801 6.02597 10.9403 5.2962 11.8005C5.12698 11.9979 4.96129 12.1954 4.79207 12.3963C4.95776 12.3963 5.12346 12.3963 5.28915 12.3963C4.83085 11.8569 4.37607 11.3175 3.91776 10.7782C3.188 9.91795 2.46177 9.05775 1.732 8.19755C1.56278 8.00012 1.39709 7.8027 1.22787 7.60175C1.10448 7.45721 0.857699 7.47483 0.730784 7.60175C0.589767 7.74629 0.610919 7.95782 0.734309 8.10236Z" fill="#3E3E3E"/>
</svg>
