<svg width="10" height="14" viewBox="0 0 10 14" fill="none" xmlns="http://www.w3.org/2000/svg">
<path d="M1.2677 5.66225L5.32546 0.867676L9.38322 5.66225H1.2677Z" fill="#3E3E3E"/>
<path d="M1.51872 5.8983C1.97703 5.35891 2.43181 4.81952 2.89011 4.28013C3.61988 3.41993 4.34611 2.55973 5.07587 1.69952C5.2451 1.5021 5.41079 1.30468 5.58001 1.10373C5.41432 1.10373 5.24862 1.10373 5.08293 1.10373C5.54123 1.64312 5.99601 2.18251 6.45431 2.7219C7.18408 3.5821 7.91031 4.4423 8.64008 5.30251C8.8093 5.49993 8.97499 5.69735 9.14421 5.8983C9.22882 5.69735 9.30991 5.4964 9.39452 5.29546C8.48143 5.29546 7.56482 5.29546 6.65174 5.29546C5.19574 5.29546 3.73974 5.29546 2.28022 5.29546C1.9453 5.29546 1.61039 5.29546 1.279 5.29546C0.824217 5.29546 0.824217 6.00054 1.279 6.00054C2.19208 6.00054 3.10869 6.00054 4.02177 6.00054C5.47777 6.00054 6.93377 6.00054 8.3933 6.00054C8.72821 6.00054 9.06313 6.00054 9.39452 6.00054C9.71885 6.00054 9.83519 5.62332 9.64482 5.39769C9.18652 4.8583 8.73174 4.31891 8.27343 3.77952C7.54367 2.91932 6.81743 2.05912 6.08767 1.19891C5.91845 1.00149 5.75276 0.804068 5.58353 0.603119C5.4672 0.465627 5.19926 0.465627 5.08645 0.603119C4.62815 1.14251 4.17337 1.6819 3.71506 2.22129C2.9853 3.08149 2.25906 3.94169 1.5293 4.8019C1.36008 4.99932 1.19439 5.19674 1.02517 5.39769C0.901776 5.54223 0.884149 5.75376 1.02517 5.89478C1.14503 6.02522 1.39533 6.04637 1.51872 5.8983Z" fill="#3E3E3E"/>
<path d="M1.2677 8.34131L5.32546 13.1359L9.38322 8.34131H1.2677Z" fill="#3E3E3E"/>
<path d="M1.02117 8.60236C1.47948 9.14175 1.93426 9.68114 2.39256 10.2205C3.12233 11.0807 3.84856 11.9409 4.57832 12.8011C4.74754 12.9986 4.91324 13.196 5.08246 13.3969C5.1988 13.5344 5.46673 13.5344 5.57954 13.3969C6.03785 12.8575 6.49263 12.3182 6.95093 11.7788C7.68069 10.9186 8.40693 10.0584 9.13669 9.19815C9.30591 9.00073 9.47161 8.80331 9.64083 8.60236C9.8312 8.37673 9.71486 7.99951 9.39052 7.99951C8.47744 7.99951 7.56083 7.99951 6.64775 7.99951C5.19175 7.99951 3.73575 7.99951 2.27622 7.99951C1.94131 7.99951 1.60639 7.99951 1.275 7.99951C0.820225 7.99951 0.820225 8.7046 1.275 8.7046C2.18809 8.7046 3.1047 8.7046 4.01778 8.7046C5.47378 8.7046 6.92978 8.7046 8.3893 8.7046C8.72422 8.7046 9.05913 8.7046 9.39052 8.7046C9.30591 8.50365 9.22483 8.3027 9.14022 8.10175C8.68191 8.64114 8.22713 9.18053 7.76883 9.71992C7.03907 10.5801 6.31283 11.4403 5.58307 12.3005C5.41385 12.4979 5.24815 12.6954 5.07893 12.8963C5.24463 12.8963 5.41032 12.8963 5.57602 12.8963C5.11771 12.3569 4.66293 11.8175 4.20463 11.2782C3.47487 10.418 2.74863 9.55775 2.01887 8.69755C1.84965 8.50012 1.68395 8.3027 1.51473 8.10175C1.39134 7.95721 1.14456 7.97483 1.01765 8.10175C0.876632 8.24629 0.897785 8.45782 1.02117 8.60236Z" fill="#3E3E3E"/>
</svg>
