<svg width="48" height="48" viewBox="0 0 48 48" fill="none" xmlns="http://www.w3.org/2000/svg">
<path fill-rule="evenodd" clip-rule="evenodd" d="M20.4886 26.0615C20.0959 19.7004 23.2225 14.5067 25.8726 11.9346C28.7382 15.1585 31.4976 20.0842 31.3079 25.8275C35.1964 22.0501 40.24 20.9283 43.3613 20.986C43.3613 28.3967 38.6971 38.4752 25.8706 38.4759L25.8702 38.4715C25.8701 38.4713 25.8699 38.471 25.8697 38.4708L25.8693 38.4759C12.6005 38.4752 7.77539 28.3967 7.77539 20.986C11.0701 20.9271 16.4352 22.0962 20.4886 26.0615Z" fill="#48BC94"/>
<path d="M4.76172 18.5713C4.76172 23.3704 6.66818 27.973 10.0617 31.3666C13.4552 34.7601 18.0578 36.6665 22.857 36.6665C27.6561 36.6665 32.2587 34.7601 35.6522 31.3666C39.0457 27.973 40.9522 23.3704 40.9522 18.5713" stroke="#263643" stroke-width="1.5" stroke-linecap="round" stroke-linejoin="round"/>
<path d="M22.8555 36.6665C22.8555 31.8674 24.7619 27.2648 28.1554 23.8713C31.549 20.4777 36.1515 18.5713 40.9507 18.5713" stroke="#263643" stroke-width="1.5" stroke-linecap="round" stroke-linejoin="round"/>
<path d="M4.76172 18.5713C7.13802 18.5713 9.49105 19.0393 11.6865 19.9487C13.8819 20.8581 15.8767 22.191 17.557 23.8713C19.2373 25.5516 20.5702 27.5464 21.4795 29.7418C22.3889 31.9372 22.857 34.2902 22.857 36.6665" stroke="#263643" stroke-width="1.5" stroke-linecap="round" stroke-linejoin="round"/>
<path d="M22.8555 9.52295C24.6791 11.2638 26.1062 13.3771 27.0399 15.719C27.9735 18.0609 28.3917 20.5764 28.2659 23.0944" stroke="#263643" stroke-width="1.5" stroke-linecap="round" stroke-linejoin="round"/>
<path d="M17.4476 23.0944C17.3219 20.5764 17.7401 18.0609 18.6737 15.719C19.6073 13.3771 21.0345 11.2638 22.8581 9.52295" stroke="#263643" stroke-width="1.5" stroke-linecap="round" stroke-linejoin="round"/>
</svg>
