<svg width="48" height="49" viewBox="0 0 48 49" fill="none" xmlns="http://www.w3.org/2000/svg">
<path fill-rule="evenodd" clip-rule="evenodd" d="M20.4886 26.5615C20.0959 20.2004 23.2225 15.0067 25.8726 12.4346C28.7382 15.6585 31.4976 20.5842 31.3079 26.3275C35.1964 22.5501 40.24 21.4283 43.3613 21.486C43.3613 28.8967 38.6971 38.9752 25.8706 38.9759L25.8702 38.9715C25.8701 38.9713 25.8699 38.971 25.8697 38.9708L25.8693 38.9759C12.6005 38.9752 7.77539 28.8967 7.77539 21.486C11.0701 21.4271 16.4352 22.5962 20.4886 26.5615Z" fill="#48BC94"/>
<path d="M4.76172 19.0713C4.76172 23.8704 6.66818 28.473 10.0617 31.8666C13.4552 35.2601 18.0578 37.1665 22.857 37.1665C27.6561 37.1665 32.2587 35.2601 35.6522 31.8666C39.0457 28.473 40.9522 23.8704 40.9522 19.0713" stroke="#263643" stroke-width="1.5" stroke-linecap="round" stroke-linejoin="round"/>
<path d="M22.8555 37.1665C22.8555 32.3674 24.7619 27.7648 28.1554 24.3713C31.549 20.9777 36.1515 19.0713 40.9507 19.0713" stroke="#263643" stroke-width="1.5" stroke-linecap="round" stroke-linejoin="round"/>
<path d="M4.76172 19.0713C7.13802 19.0713 9.49105 19.5393 11.6865 20.4487C13.8819 21.3581 15.8767 22.691 17.557 24.3713C19.2373 26.0516 20.5702 28.0464 21.4795 30.2418C22.3889 32.4372 22.857 34.7902 22.857 37.1665" stroke="#263643" stroke-width="1.5" stroke-linecap="round" stroke-linejoin="round"/>
<path d="M22.8555 10.0229C24.6791 11.7638 26.1062 13.8771 27.0399 16.219C27.9735 18.5609 28.3917 21.0764 28.2659 23.5944" stroke="#263643" stroke-width="1.5" stroke-linecap="round" stroke-linejoin="round"/>
<path d="M17.4476 23.5944C17.3219 21.0764 17.7401 18.5609 18.6737 16.219C19.6073 13.8771 21.0345 11.7638 22.8581 10.0229" stroke="#263643" stroke-width="1.5" stroke-linecap="round" stroke-linejoin="round"/>
</svg>
