<svg width="32" height="32" viewBox="0 0 32 32" fill="none" xmlns="http://www.w3.org/2000/svg">
<path d="M25.1033 4.81555H11.0233C9.4681 4.81555 8.20734 6.07632 8.20734 7.63155V27.3436C8.20734 28.8988 9.4681 30.1596 11.0233 30.1596H25.1033C26.6586 30.1596 27.9193 28.8988 27.9193 27.3436V7.63155C27.9193 6.07632 26.6586 4.81555 25.1033 4.81555Z" fill="#E0A8BC"/>
<path d="M8.96409 7.632H17.4121M8.96409 13.264H17.4121M8.96409 18.896H14.5961M6.14834 2H20.2283C21.7836 2 23.0443 3.26077 23.0443 4.816V24.528C23.0443 26.0832 21.7836 27.344 20.2283 27.344H6.14834C4.5931 27.344 3.33234 26.0832 3.33234 24.528V4.816C3.33234 3.26077 4.5931 2 6.14834 2Z" stroke="#2C3E50" stroke-width="2" stroke-linecap="round" stroke-linejoin="round"/>
<path d="M14.7896 28.6667H17.5731L24.8798 21.36C25.2489 20.9909 25.4563 20.4902 25.4563 19.9682C25.4563 19.4462 25.2489 18.9456 24.8798 18.5765C24.5107 18.2074 24.0101 18 23.488 18C22.966 18 22.4654 18.2074 22.0963 18.5765L14.7896 25.8832V28.6667Z" fill="#FFEDA6"/>
<path d="M21.4004 19.2724L24.1839 22.0559M14.7896 28.6667H17.5731L24.8798 21.36C25.2489 20.9909 25.4563 20.4902 25.4563 19.9682C25.4563 19.4462 25.2489 18.9456 24.8798 18.5765C24.5107 18.2074 24.0101 18 23.488 18C22.966 18 22.4654 18.2074 22.0963 18.5765L14.7896 25.8832V28.6667Z" stroke="#2C3E50" stroke-width="2" stroke-linecap="round" stroke-linejoin="round"/>
</svg>
