<svg width="10" height="13" viewBox="0 0 10 13" fill="none" xmlns="http://www.w3.org/2000/svg">
<path d="M1.16425 5.16225L5.22201 0.367676L9.27977 5.16225H1.16425Z" fill="#3E3E3E"/>
<path d="M1.41528 5.3983C1.87358 4.85891 2.32836 4.31952 2.78667 3.78013C3.51643 2.91993 4.24267 2.05973 4.97243 1.19952C5.14165 1.0021 5.30734 0.804677 5.47656 0.603728C5.31087 0.603728 5.14517 0.603728 4.97948 0.603728C5.43778 1.14312 5.89256 1.68251 6.35087 2.2219C7.08063 3.0821 7.80687 3.9423 8.53663 4.80251C8.70585 4.99993 8.87154 5.19735 9.04076 5.3983C9.12537 5.19735 9.20646 4.9964 9.29107 4.79546C8.37798 4.79546 7.46138 4.79546 6.54829 4.79546C5.09229 4.79546 3.63629 4.79546 2.17677 4.79546C1.84185 4.79546 1.50694 4.79546 1.17555 4.79546C0.72077 4.79546 0.72077 5.50054 1.17555 5.50054C2.08863 5.50054 3.00524 5.50054 3.91833 5.50054C5.37433 5.50054 6.83032 5.50054 8.28985 5.50054C8.62476 5.50054 8.95968 5.50054 9.29107 5.50054C9.61541 5.50054 9.73175 5.12332 9.54137 4.89769C9.08307 4.3583 8.62829 3.81891 8.16999 3.27952C7.44022 2.41932 6.71399 1.55912 5.98422 0.698915C5.815 0.501491 5.64931 0.304068 5.48009 0.103119C5.36375 -0.0343729 5.09582 -0.0343729 4.983 0.103119C4.5247 0.642508 4.06992 1.1819 3.61162 1.72129C2.88185 2.58149 2.15562 3.44169 1.42585 4.3019C1.25663 4.49932 1.09094 4.69674 0.921719 4.89769C0.798329 5.04223 0.780702 5.25376 0.921719 5.39478C1.04158 5.52522 1.29189 5.54637 1.41528 5.3983Z" fill="#3E3E3E"/>
<path d="M1.16425 7.84131L5.22201 12.6359L9.27977 7.84131H1.16425Z" fill="#3E3E3E"/>
<path d="M0.917727 8.10236C1.37603 8.64175 1.83081 9.18114 2.28912 9.72053C3.01888 10.5807 3.74512 11.4409 4.47488 12.3011C4.6441 12.4986 4.80979 12.696 4.97901 12.8969C5.09535 13.0344 5.36328 13.0344 5.4761 12.8969C5.9344 12.3575 6.38918 11.8182 6.84749 11.2788C7.57725 10.4186 8.30348 9.55836 9.03325 8.69815C9.20247 8.50073 9.36816 8.30331 9.53738 8.10236C9.72775 7.87673 9.61141 7.49951 9.28708 7.49951C8.37399 7.49951 7.45738 7.49951 6.5443 7.49951C5.0883 7.49951 3.6323 7.49951 2.17278 7.49951C1.83786 7.49951 1.50295 7.49951 1.17156 7.49951C0.716778 7.49951 0.716778 8.2046 1.17156 8.2046C2.08464 8.2046 3.00125 8.2046 3.91434 8.2046C5.37033 8.2046 6.82633 8.2046 8.28586 8.2046C8.62077 8.2046 8.95569 8.2046 9.28708 8.2046C9.20247 8.00365 9.12138 7.8027 9.03677 7.60175C8.57847 8.14114 8.12369 8.68053 7.66538 9.21992C6.93562 10.0801 6.20938 10.9403 5.47962 11.8005C5.3104 11.9979 5.14471 12.1954 4.97549 12.3963C5.14118 12.3963 5.30688 12.3963 5.47257 12.3963C5.01427 11.8569 4.55949 11.3175 4.10118 10.7782C3.37142 9.91795 2.64518 9.05775 1.91542 8.19755C1.7462 8.00012 1.58051 7.8027 1.41129 7.60175C1.2879 7.45721 1.04112 7.47483 0.914202 7.60175C0.773185 7.74629 0.794338 7.95782 0.917727 8.10236Z" fill="#3E3E3E"/>
</svg>
