<svg width="10" height="14" viewBox="0 0 10 14" fill="none" xmlns="http://www.w3.org/2000/svg">
<path d="M0.727783 5.66225L4.78554 0.867676L8.8433 5.66225H0.727783Z" fill="#3E3E3E"/>
<path d="M0.978808 5.8983C1.43711 5.35891 1.89189 4.81952 2.3502 4.28013C3.07996 3.41993 3.8062 2.55973 4.53596 1.69952C4.70518 1.5021 4.87087 1.30468 5.04009 1.10373C4.8744 1.10373 4.7087 1.10373 4.54301 1.10373C5.00131 1.64312 5.45609 2.18251 5.9144 2.7219C6.64416 3.5821 7.3704 4.4423 8.10016 5.30251C8.26938 5.49993 8.43507 5.69735 8.60429 5.8983C8.6889 5.69735 8.76999 5.4964 8.8546 5.29546C7.94151 5.29546 7.02491 5.29546 6.11182 5.29546C4.65582 5.29546 3.19982 5.29546 1.7403 5.29546C1.40538 5.29546 1.07047 5.29546 0.739079 5.29546C0.2843 5.29546 0.2843 6.00054 0.739079 6.00054C1.65216 6.00054 2.56877 6.00054 3.48186 6.00054C4.93786 6.00054 6.39385 6.00054 7.85338 6.00054C8.18829 6.00054 8.52321 6.00054 8.8546 6.00054C9.17894 6.00054 9.29528 5.62332 9.1049 5.39769C8.6466 4.8583 8.19182 4.31891 7.73352 3.77952C7.00375 2.91932 6.27752 2.05912 5.54775 1.19891C5.37853 1.00149 5.21284 0.804068 5.04362 0.603119C4.92728 0.465627 4.65935 0.465627 4.54653 0.603119C4.08823 1.14251 3.63345 1.6819 3.17515 2.22129C2.44538 3.08149 1.71915 3.94169 0.989384 4.8019C0.820164 4.99932 0.654469 5.19674 0.485249 5.39769C0.361859 5.54223 0.344232 5.75376 0.485249 5.89478C0.605113 6.02522 0.855418 6.04637 0.978808 5.8983Z" fill="#3E3E3E"/>
<path d="M0.727783 8.34131L4.78554 13.1359L8.8433 8.34131H0.727783Z" fill="#3E3E3E"/>
<path d="M0.481257 8.60236C0.939562 9.14175 1.39434 9.68114 1.85265 10.2205C2.58241 11.0807 3.30865 11.9409 4.03841 12.8011C4.20763 12.9986 4.37332 13.196 4.54254 13.3969C4.65888 13.5344 4.92681 13.5344 5.03963 13.3969C5.49793 12.8575 5.95271 12.3182 6.41102 11.7788C7.14078 10.9186 7.86701 10.0584 8.59678 9.19815C8.766 9.00073 8.93169 8.80331 9.10091 8.60236C9.29128 8.37673 9.17494 7.99951 8.85061 7.99951C7.93752 7.99951 7.02091 7.99951 6.10783 7.99951C4.65183 7.99951 3.19583 7.99951 1.73631 7.99951C1.40139 7.99951 1.06648 7.99951 0.735088 7.99951C0.280308 7.99951 0.280308 8.7046 0.735088 8.7046C1.64817 8.7046 2.56478 8.7046 3.47787 8.7046C4.93386 8.7046 6.38986 8.7046 7.84939 8.7046C8.1843 8.7046 8.51922 8.7046 8.85061 8.7046C8.766 8.50365 8.68491 8.3027 8.6003 8.10175C8.142 8.64114 7.68722 9.18053 7.22891 9.71992C6.49915 10.5801 5.77291 11.4403 5.04315 12.3005C4.87393 12.4979 4.70824 12.6954 4.53902 12.8963C4.70471 12.8963 4.87041 12.8963 5.0361 12.8963C4.5778 12.3569 4.12302 11.8175 3.66471 11.2782C2.93495 10.418 2.20871 9.55775 1.47895 8.69755C1.30973 8.50012 1.14404 8.3027 0.974816 8.10175C0.851426 7.95721 0.604647 7.97483 0.477732 8.10175C0.336715 8.24629 0.357868 8.45782 0.481257 8.60236Z" fill="#3E3E3E"/>
</svg>
