<svg width="10" height="13" viewBox="0 0 10 13" fill="none" xmlns="http://www.w3.org/2000/svg">
<path d="M0.98085 5.16225L5.03861 0.367676L9.09637 5.16225H0.98085Z" fill="#3E3E3E"/>
<path d="M1.23187 5.3983C1.69018 4.85891 2.14496 4.31952 2.60326 3.78013C3.33303 2.91993 4.05926 2.05973 4.78902 1.19952C4.95825 1.0021 5.12394 0.804677 5.29316 0.603728C5.12747 0.603728 4.96177 0.603728 4.79608 0.603728C5.25438 1.14312 5.70916 1.68251 6.16746 2.2219C6.89723 3.0821 7.62346 3.9423 8.35323 4.80251C8.52245 4.99993 8.68814 5.19735 8.85736 5.3983C8.94197 5.19735 9.02306 4.9964 9.10767 4.79546C8.19458 4.79546 7.27797 4.79546 6.36489 4.79546C4.90889 4.79546 3.45289 4.79546 1.99337 4.79546C1.65845 4.79546 1.32354 4.79546 0.992146 4.79546C0.537367 4.79546 0.537367 5.50054 0.992146 5.50054C1.90523 5.50054 2.82184 5.50054 3.73492 5.50054C5.19092 5.50054 6.64692 5.50054 8.10645 5.50054C8.44136 5.50054 8.77628 5.50054 9.10767 5.50054C9.432 5.50054 9.54834 5.12332 9.35797 4.89769C8.89967 4.3583 8.44489 3.81891 7.98658 3.27952C7.25682 2.41932 6.53058 1.55912 5.80082 0.698915C5.6316 0.501491 5.46591 0.304068 5.29668 0.103119C5.18035 -0.0343729 4.91241 -0.0343729 4.7996 0.103119C4.3413 0.642508 3.88652 1.1819 3.42821 1.72129C2.69845 2.58149 1.97221 3.44169 1.24245 4.3019C1.07323 4.49932 0.907536 4.69674 0.738316 4.89769C0.614926 5.04223 0.597299 5.25376 0.738316 5.39478C0.85818 5.52522 1.10849 5.54637 1.23187 5.3983Z" fill="#3E3E3E"/>
<path d="M0.98085 7.84131L5.03861 12.6359L9.09637 7.84131H0.98085Z" fill="#3E3E3E"/>
<path d="M0.734324 8.10236C1.19263 8.64175 1.64741 9.18114 2.10571 9.72053C2.83548 10.5807 3.56171 11.4409 4.29147 12.3011C4.46069 12.4986 4.62639 12.696 4.79561 12.8969C4.91195 13.0344 5.17988 13.0344 5.29269 12.8969C5.751 12.3575 6.20578 11.8182 6.66408 11.2788C7.39384 10.4186 8.12008 9.55836 8.84984 8.69815C9.01906 8.50073 9.18476 8.30331 9.35398 8.10236C9.54435 7.87673 9.42801 7.49951 9.10367 7.49951C8.19059 7.49951 7.27398 7.49951 6.3609 7.49951C4.9049 7.49951 3.4489 7.49951 1.98937 7.49951C1.65446 7.49951 1.31954 7.49951 0.988155 7.49951C0.533375 7.49951 0.533375 8.2046 0.988155 8.2046C1.90124 8.2046 2.81785 8.2046 3.73093 8.2046C5.18693 8.2046 6.64293 8.2046 8.10245 8.2046C8.43737 8.2046 8.77228 8.2046 9.10367 8.2046C9.01906 8.00365 8.93798 7.8027 8.85337 7.60175C8.39506 8.14114 7.94028 8.68053 7.48198 9.21992C6.75222 10.0801 6.02598 10.9403 5.29622 11.8005C5.127 11.9979 4.9613 12.1954 4.79208 12.3963C4.95778 12.3963 5.12347 12.3963 5.28917 12.3963C4.83086 11.8569 4.37608 11.3175 3.91778 10.7782C3.18802 9.91795 2.46178 9.05775 1.73202 8.19755C1.5628 8.00012 1.3971 7.8027 1.22788 7.60175C1.10449 7.45721 0.857714 7.47483 0.730799 7.60175C0.589782 7.74629 0.610935 7.95782 0.734324 8.10236Z" fill="#3E3E3E"/>
</svg>
