<svg width="10" height="13" viewBox="0 0 10 13" fill="none" xmlns="http://www.w3.org/2000/svg">
<path d="M0.727661 5.16225L4.78542 0.367676L8.84318 5.16225H0.727661Z" fill="#3E3E3E"/>
<path d="M0.978686 5.3983C1.43699 4.85891 1.89177 4.31952 2.35007 3.78013C3.07984 2.91993 3.80607 2.05973 4.53584 1.19952C4.70506 1.0021 4.87075 0.804677 5.03997 0.603728C4.87428 0.603728 4.70858 0.603728 4.54289 0.603728C5.00119 1.14312 5.45597 1.68251 5.91428 2.2219C6.64404 3.0821 7.37027 3.9423 8.10004 4.80251C8.26926 4.99993 8.43495 5.19735 8.60417 5.3983C8.68878 5.19735 8.76987 4.9964 8.85448 4.79546C7.94139 4.79546 7.02478 4.79546 6.1117 4.79546C4.6557 4.79546 3.1997 4.79546 1.74018 4.79546C1.40526 4.79546 1.07035 4.79546 0.738957 4.79546C0.284178 4.79546 0.284178 5.50054 0.738957 5.50054C1.65204 5.50054 2.56865 5.50054 3.48173 5.50054C4.93773 5.50054 6.39373 5.50054 7.85326 5.50054C8.18817 5.50054 8.52309 5.50054 8.85448 5.50054C9.17882 5.50054 9.29515 5.12332 9.10478 4.89769C8.64648 4.3583 8.1917 3.81891 7.73339 3.27952C7.00363 2.41932 6.27739 1.55912 5.54763 0.698915C5.37841 0.501491 5.21272 0.304068 5.0435 0.103119C4.92716 -0.0343729 4.65923 -0.0343729 4.54641 0.103119C4.08811 0.642508 3.63333 1.1819 3.17502 1.72129C2.44526 2.58149 1.71902 3.44169 0.989262 4.3019C0.820042 4.49932 0.654347 4.69674 0.485127 4.89769C0.361737 5.04223 0.34411 5.25376 0.485127 5.39478C0.604991 5.52522 0.855296 5.54637 0.978686 5.3983Z" fill="#3E3E3E"/>
<path d="M0.727661 7.84131L4.78542 12.6359L8.84318 7.84131H0.727661Z" fill="#3E3E3E"/>
<path d="M0.481135 8.10236C0.93944 8.64175 1.39422 9.18114 1.85252 9.72053C2.58229 10.5807 3.30852 11.4409 4.03829 12.3011C4.20751 12.4986 4.3732 12.696 4.54242 12.8969C4.65876 13.0344 4.92669 13.0344 5.0395 12.8969C5.49781 12.3575 5.95259 11.8182 6.41089 11.2788C7.14066 10.4186 7.86689 9.55836 8.59665 8.69815C8.76587 8.50073 8.93157 8.30331 9.10079 8.10236C9.29116 7.87673 9.17482 7.49951 8.85048 7.49951C7.9374 7.49951 7.02079 7.49951 6.10771 7.49951C4.65171 7.49951 3.19571 7.49951 1.73619 7.49951C1.40127 7.49951 1.06636 7.49951 0.734966 7.49951C0.280186 7.49951 0.280186 8.2046 0.734966 8.2046C1.64805 8.2046 2.56466 8.2046 3.47774 8.2046C4.93374 8.2046 6.38974 8.2046 7.84926 8.2046C8.18418 8.2046 8.51909 8.2046 8.85048 8.2046C8.76587 8.00365 8.68479 7.8027 8.60018 7.60175C8.14188 8.14114 7.6871 8.68053 7.22879 9.21992C6.49903 10.0801 5.77279 10.9403 5.04303 11.8005C4.87381 11.9979 4.70812 12.1954 4.53889 12.3963C4.70459 12.3963 4.87028 12.3963 5.03598 12.3963C4.57767 11.8569 4.1229 11.3175 3.66459 10.7782C2.93483 9.91795 2.20859 9.05775 1.47883 8.19755C1.30961 8.00012 1.14391 7.8027 0.974694 7.60175C0.851304 7.45721 0.604525 7.47483 0.47761 7.60175C0.336593 7.74629 0.357745 7.95782 0.481135 8.10236Z" fill="#3E3E3E"/>
</svg>
