<svg width="10" height="13" viewBox="0 0 10 13" fill="none" xmlns="http://www.w3.org/2000/svg">
<path d="M1.16425 5.16225L5.22201 0.367676L9.27977 5.16225H1.16425Z" fill="#3E3E3E"/>
<path d="M1.41527 5.3983C1.87357 4.85891 2.32835 4.31952 2.78666 3.78013C3.51642 2.91993 4.24266 2.05973 4.97242 1.19952C5.14164 1.0021 5.30734 0.804677 5.47656 0.603728C5.31086 0.603728 5.14517 0.603728 4.97947 0.603728C5.43778 1.14312 5.89256 1.68251 6.35086 2.2219C7.08062 3.0821 7.80686 3.9423 8.53662 4.80251C8.70584 4.99993 8.87154 5.19735 9.04076 5.3983C9.12537 5.19735 9.20645 4.9964 9.29106 4.79546C8.37798 4.79546 7.46137 4.79546 6.54828 4.79546C5.09228 4.79546 3.63629 4.79546 2.17676 4.79546C1.84185 4.79546 1.50693 4.79546 1.17554 4.79546C0.720762 4.79546 0.720762 5.50054 1.17554 5.50054C2.08863 5.50054 3.00524 5.50054 3.91832 5.50054C5.37432 5.50054 6.83032 5.50054 8.28984 5.50054C8.62476 5.50054 8.95967 5.50054 9.29106 5.50054C9.6154 5.50054 9.73174 5.12332 9.54137 4.89769C9.08306 4.3583 8.62828 3.81891 8.16998 3.27952C7.44022 2.41932 6.71398 1.55912 5.98422 0.698915C5.815 0.501491 5.6493 0.304068 5.48008 0.103119C5.36374 -0.0343729 5.09581 -0.0343729 4.983 0.103119C4.52469 0.642508 4.06991 1.1819 3.61161 1.72129C2.88185 2.58149 2.15561 3.44169 1.42585 4.3019C1.25663 4.49932 1.09093 4.69674 0.921711 4.89769C0.798321 5.04223 0.780694 5.25376 0.921711 5.39478C1.04158 5.52522 1.29188 5.54637 1.41527 5.3983Z" fill="#3E3E3E"/>
<path d="M1.16425 7.84131L5.22201 12.6359L9.27977 7.84131H1.16425Z" fill="#3E3E3E"/>
<path d="M0.91772 8.10236C1.37602 8.64175 1.8308 9.18114 2.28911 9.72053C3.01887 10.5807 3.74511 11.4409 4.47487 12.3011C4.64409 12.4986 4.80978 12.696 4.979 12.8969C5.09534 13.0344 5.36328 13.0344 5.47609 12.8969C5.93439 12.3575 6.38917 11.8182 6.84748 11.2788C7.57724 10.4186 8.30348 9.55836 9.03324 8.69815C9.20246 8.50073 9.36815 8.30331 9.53737 8.10236C9.72775 7.87673 9.61141 7.49951 9.28707 7.49951C8.37398 7.49951 7.45738 7.49951 6.54429 7.49951C5.08829 7.49951 3.63229 7.49951 2.17277 7.49951C1.83785 7.49951 1.50294 7.49951 1.17155 7.49951C0.716771 7.49951 0.716771 8.2046 1.17155 8.2046C2.08463 8.2046 3.00124 8.2046 3.91433 8.2046C5.37033 8.2046 6.82632 8.2046 8.28585 8.2046C8.62076 8.2046 8.95568 8.2046 9.28707 8.2046C9.20246 8.00365 9.12137 7.8027 9.03676 7.60175C8.57846 8.14114 8.12368 8.68053 7.66537 9.21992C6.93561 10.0801 6.20938 10.9403 5.47961 11.8005C5.31039 11.9979 5.1447 12.1954 4.97548 12.3963C5.14117 12.3963 5.30687 12.3963 5.47256 12.3963C5.01426 11.8569 4.55948 11.3175 4.10117 10.7782C3.37141 9.91795 2.64518 9.05775 1.91541 8.19755C1.74619 8.00012 1.5805 7.8027 1.41128 7.60175C1.28789 7.45721 1.04111 7.47483 0.914194 7.60175C0.773177 7.74629 0.79433 7.95782 0.91772 8.10236Z" fill="#3E3E3E"/>
</svg>
