<svg width="10" height="13" viewBox="0 0 10 13" fill="none" xmlns="http://www.w3.org/2000/svg">
<path d="M0.627686 5.16225L4.68545 0.367676L8.74321 5.16225H0.627686Z" fill="#3E3E3E"/>
<path d="M0.87871 5.3983C1.33701 4.85891 1.79179 4.31952 2.2501 3.78013C2.97986 2.91993 3.7061 2.05973 4.43586 1.19952C4.60508 1.0021 4.77078 0.804677 4.94 0.603728C4.7743 0.603728 4.60861 0.603728 4.44291 0.603728C4.90122 1.14312 5.356 1.68251 5.8143 2.2219C6.54406 3.0821 7.2703 3.9423 8.00006 4.80251C8.16928 4.99993 8.33498 5.19735 8.5042 5.3983C8.58881 5.19735 8.66989 4.9964 8.7545 4.79546C7.84142 4.79546 6.92481 4.79546 6.01172 4.79546C4.55572 4.79546 3.09973 4.79546 1.6402 4.79546C1.30529 4.79546 0.970371 4.79546 0.638981 4.79546C0.184202 4.79546 0.184202 5.50054 0.638981 5.50054C1.55207 5.50054 2.46868 5.50054 3.38176 5.50054C4.83776 5.50054 6.29376 5.50054 7.75328 5.50054C8.0882 5.50054 8.42311 5.50054 8.7545 5.50054C9.07884 5.50054 9.19518 5.12332 9.00481 4.89769C8.5465 4.3583 8.09172 3.81891 7.63342 3.27952C6.90366 2.41932 6.17742 1.55912 5.44766 0.698915C5.27844 0.501491 5.11274 0.304068 4.94352 0.103119C4.82718 -0.0343729 4.55925 -0.0343729 4.44644 0.103119C3.98813 0.642508 3.53335 1.1819 3.07505 1.72129C2.34529 2.58149 1.61905 3.44169 0.889286 4.3019C0.720066 4.49932 0.554371 4.69674 0.385151 4.89769C0.261761 5.04223 0.244134 5.25376 0.385151 5.39478C0.505015 5.52522 0.75532 5.54637 0.87871 5.3983Z" fill="#3E3E3E"/>
<path d="M0.627686 7.84131L4.68545 12.6359L8.74321 7.84131H0.627686Z" fill="#3E3E3E"/>
<path d="M0.38116 8.10236C0.839464 8.64175 1.29424 9.18114 1.75255 9.72053C2.48231 10.5807 3.20855 11.4409 3.93831 12.3011C4.10753 12.4986 4.27322 12.696 4.44244 12.8969C4.55878 13.0344 4.82672 13.0344 4.93953 12.8969C5.39783 12.3575 5.85261 11.8182 6.31092 11.2788C7.04068 10.4186 7.76692 9.55836 8.49668 8.69815C8.6659 8.50073 8.83159 8.30331 9.00081 8.10236C9.19119 7.87673 9.07485 7.49951 8.75051 7.49951C7.83742 7.49951 6.92082 7.49951 6.00773 7.49951C4.55173 7.49951 3.09573 7.49951 1.63621 7.49951C1.30129 7.49951 0.96638 7.49951 0.63499 7.49951C0.180211 7.49951 0.180211 8.2046 0.63499 8.2046C1.54807 8.2046 2.46468 8.2046 3.37777 8.2046C4.83377 8.2046 6.28976 8.2046 7.74929 8.2046C8.0842 8.2046 8.41912 8.2046 8.75051 8.2046C8.6659 8.00365 8.58481 7.8027 8.5002 7.60175C8.0419 8.14114 7.58712 8.68053 7.12881 9.21992C6.39905 10.0801 5.67282 10.9403 4.94305 11.8005C4.77383 11.9979 4.60814 12.1954 4.43892 12.3963C4.60461 12.3963 4.77031 12.3963 4.936 12.3963C4.4777 11.8569 4.02292 11.3175 3.56461 10.7782C2.83485 9.91795 2.10862 9.05775 1.37885 8.19755C1.20963 8.00012 1.04394 7.8027 0.874718 7.60175C0.751329 7.45721 0.504549 7.47483 0.377634 7.60175C0.236617 7.74629 0.25777 7.95782 0.38116 8.10236Z" fill="#3E3E3E"/>
</svg>
