<svg width="10" height="13" viewBox="0 0 10 13" fill="none" xmlns="http://www.w3.org/2000/svg">
<path d="M1.2677 5.16225L5.32546 0.367676L9.38322 5.16225H1.2677Z" fill="#3E3E3E"/>
<path d="M1.51872 5.3983C1.97703 4.85891 2.43181 4.31952 2.89011 3.78013C3.61988 2.91993 4.34611 2.05973 5.07587 1.19952C5.2451 1.0021 5.41079 0.804677 5.58001 0.603728C5.41432 0.603728 5.24862 0.603728 5.08293 0.603728C5.54123 1.14312 5.99601 1.68251 6.45431 2.2219C7.18408 3.0821 7.91031 3.9423 8.64008 4.80251C8.8093 4.99993 8.97499 5.19735 9.14421 5.3983C9.22882 5.19735 9.30991 4.9964 9.39452 4.79546C8.48143 4.79546 7.56482 4.79546 6.65174 4.79546C5.19574 4.79546 3.73974 4.79546 2.28022 4.79546C1.9453 4.79546 1.61039 4.79546 1.279 4.79546C0.824217 4.79546 0.824217 5.50054 1.279 5.50054C2.19208 5.50054 3.10869 5.50054 4.02177 5.50054C5.47777 5.50054 6.93377 5.50054 8.3933 5.50054C8.72821 5.50054 9.06313 5.50054 9.39452 5.50054C9.71885 5.50054 9.83519 5.12332 9.64482 4.89769C9.18652 4.3583 8.73174 3.81891 8.27343 3.27952C7.54367 2.41932 6.81743 1.55912 6.08767 0.698915C5.91845 0.501491 5.75276 0.304068 5.58353 0.103119C5.4672 -0.0343729 5.19926 -0.0343729 5.08645 0.103119C4.62815 0.642508 4.17337 1.1819 3.71506 1.72129C2.9853 2.58149 2.25906 3.44169 1.5293 4.3019C1.36008 4.49932 1.19439 4.69674 1.02517 4.89769C0.901776 5.04223 0.884149 5.25376 1.02517 5.39478C1.14503 5.52522 1.39533 5.54637 1.51872 5.3983Z" fill="#3E3E3E"/>
<path d="M1.2677 7.84131L5.32546 12.6359L9.38322 7.84131H1.2677Z" fill="#3E3E3E"/>
<path d="M1.02117 8.10236C1.47948 8.64175 1.93426 9.18114 2.39256 9.72053C3.12233 10.5807 3.84856 11.4409 4.57832 12.3011C4.74754 12.4986 4.91324 12.696 5.08246 12.8969C5.1988 13.0344 5.46673 13.0344 5.57954 12.8969C6.03785 12.3575 6.49263 11.8182 6.95093 11.2788C7.68069 10.4186 8.40693 9.55836 9.13669 8.69815C9.30591 8.50073 9.47161 8.30331 9.64083 8.10236C9.8312 7.87673 9.71486 7.49951 9.39052 7.49951C8.47744 7.49951 7.56083 7.49951 6.64775 7.49951C5.19175 7.49951 3.73575 7.49951 2.27622 7.49951C1.94131 7.49951 1.60639 7.49951 1.275 7.49951C0.820225 7.49951 0.820225 8.2046 1.275 8.2046C2.18809 8.2046 3.1047 8.2046 4.01778 8.2046C5.47378 8.2046 6.92978 8.2046 8.3893 8.2046C8.72422 8.2046 9.05913 8.2046 9.39052 8.2046C9.30591 8.00365 9.22483 7.8027 9.14022 7.60175C8.68191 8.14114 8.22713 8.68053 7.76883 9.21992C7.03907 10.0801 6.31283 10.9403 5.58307 11.8005C5.41385 11.9979 5.24815 12.1954 5.07893 12.3963C5.24463 12.3963 5.41032 12.3963 5.57602 12.3963C5.11771 11.8569 4.66293 11.3175 4.20463 10.7782C3.47487 9.91795 2.74863 9.05775 2.01887 8.19755C1.84965 8.00012 1.68395 7.8027 1.51473 7.60175C1.39134 7.45721 1.14456 7.47483 1.01765 7.60175C0.876632 7.74629 0.897785 7.95782 1.02117 8.10236Z" fill="#3E3E3E"/>
</svg>
