<svg width="33" height="33" viewBox="0 0 33 33" fill="none" xmlns="http://www.w3.org/2000/svg">
<path d="M25.8871 4.96643H11.3671C9.76324 4.96643 8.46307 6.2666 8.46307 7.87043V28.1984C8.46307 29.8023 9.76324 31.1024 11.3671 31.1024H25.8871C27.4909 31.1024 28.7911 29.8023 28.7911 28.1984V7.87043C28.7911 6.2666 27.4909 4.96643 25.8871 4.96643Z" fill="#82ECC8"/>
<path d="M9.2453 7.8705H17.9573M9.2453 13.6785H17.9573M9.2453 19.4865H15.0533M6.34156 2.0625H20.8616C22.4654 2.0625 23.7656 3.36267 23.7656 4.9665V25.2945C23.7656 26.8983 22.4654 28.1985 20.8616 28.1985H6.34156C4.73773 28.1985 3.43756 26.8983 3.43756 25.2945V4.9665C3.43756 3.36267 4.73773 2.0625 6.34156 2.0625Z" stroke="#2C3E50" stroke-width="2" stroke-linecap="round" stroke-linejoin="round"/>
<path d="M15.2514 29.5625H18.1219L25.6569 22.0275C26.0376 21.6468 26.2514 21.1306 26.2514 20.5922C26.2514 20.0539 26.0376 19.5376 25.6569 19.157C25.2763 18.7763 24.76 18.5625 24.2217 18.5625C23.6833 18.5625 23.1671 18.7763 22.7864 19.157L15.2514 26.692V29.5625Z" fill="#FFEDA6"/>
<path d="M22.0688 19.8746L24.9393 22.7451M15.2514 29.5625H18.1219L25.6569 22.0275C26.0376 21.6468 26.2514 21.1306 26.2514 20.5922C26.2514 20.0539 26.0376 19.5376 25.6569 19.157C25.2763 18.7763 24.76 18.5625 24.2217 18.5625C23.6833 18.5625 23.1671 18.7763 22.7864 19.157L15.2514 26.692V29.5625Z" stroke="#2C3E50" stroke-width="2" stroke-linecap="round" stroke-linejoin="round"/>
</svg>
