<svg width="9" height="14" viewBox="0 0 9 14" fill="none" xmlns="http://www.w3.org/2000/svg">
<path d="M0.347656 5.66225L4.40542 0.867676L8.46318 5.66225H0.347656Z" fill="#3E3E3E"/>
<path d="M0.598681 5.8983C1.05699 5.35891 1.51176 4.81952 1.97007 4.28013C2.69983 3.41993 3.42607 2.55973 4.15583 1.69952C4.32505 1.5021 4.49075 1.30468 4.65997 1.10373C4.49427 1.10373 4.32858 1.10373 4.16288 1.10373C4.62119 1.64312 5.07597 2.18251 5.53427 2.7219C6.26403 3.5821 6.99027 4.4423 7.72003 5.30251C7.88925 5.49993 8.05495 5.69735 8.22417 5.8983C8.30878 5.69735 8.38986 5.4964 8.47447 5.29546C7.56139 5.29546 6.64478 5.29546 5.73169 5.29546C4.2757 5.29546 2.8197 5.29546 1.36017 5.29546C1.02526 5.29546 0.690342 5.29546 0.358952 5.29546C-0.0958273 5.29546 -0.0958273 6.00054 0.358952 6.00054C1.27204 6.00054 2.18865 6.00054 3.10173 6.00054C4.55773 6.00054 6.01373 6.00054 7.47325 6.00054C7.80817 6.00054 8.14308 6.00054 8.47447 6.00054C8.79881 6.00054 8.91515 5.62332 8.72478 5.39769C8.26647 4.8583 7.81169 4.31891 7.35339 3.77952C6.62363 2.91932 5.89739 2.05912 5.16763 1.19891C4.99841 1.00149 4.83271 0.804068 4.66349 0.603119C4.54715 0.465627 4.27922 0.465627 4.16641 0.603119C3.7081 1.14251 3.25332 1.6819 2.79502 2.22129C2.06526 3.08149 1.33902 3.94169 0.609257 4.8019C0.440037 4.99932 0.274342 5.19674 0.105122 5.39769C-0.018268 5.54223 -0.0358951 5.75376 0.105122 5.89478C0.224986 6.02522 0.475291 6.04637 0.598681 5.8983Z" fill="#3E3E3E"/>
<path d="M0.347656 8.34131L4.40542 13.1359L8.46318 8.34131H0.347656Z" fill="#3E3E3E"/>
<path d="M0.10113 8.60236C0.559435 9.14175 1.01421 9.68114 1.47252 10.2205C2.20228 11.0807 2.92852 11.9409 3.65828 12.8011C3.8275 12.9986 3.9932 13.196 4.16242 13.3969C4.27875 13.5344 4.54669 13.5344 4.6595 13.3969C5.1178 12.8575 5.57258 12.3182 6.03089 11.7788C6.76065 10.9186 7.48689 10.0584 8.21665 9.19815C8.38587 9.00073 8.55156 8.80331 8.72078 8.60236C8.91116 8.37673 8.79482 7.99951 8.47048 7.99951C7.5574 7.99951 6.64079 7.99951 5.7277 7.99951C4.2717 7.99951 2.8157 7.99951 1.35618 7.99951C1.02127 7.99951 0.68635 7.99951 0.354961 7.99951C-0.0998185 7.99951 -0.0998185 8.7046 0.354961 8.7046C1.26804 8.7046 2.18465 8.7046 3.09774 8.7046C4.55374 8.7046 6.00974 8.7046 7.46926 8.7046C7.80417 8.7046 8.13909 8.7046 8.47048 8.7046C8.38587 8.50365 8.30479 8.3027 8.22018 8.10175C7.76187 8.64114 7.30709 9.18053 6.84879 9.71992C6.11902 10.5801 5.39279 11.4403 4.66302 12.3005C4.4938 12.4979 4.32811 12.6954 4.15889 12.8963C4.32458 12.8963 4.49028 12.8963 4.65597 12.8963C4.19767 12.3569 3.74289 11.8175 3.28459 11.2782C2.55482 10.418 1.82859 9.55775 1.09882 8.69755C0.929604 8.50012 0.763909 8.3027 0.594689 8.10175C0.471299 7.95721 0.22452 7.97483 0.097605 8.10175C-0.0434119 8.24629 -0.0222594 8.45782 0.10113 8.60236Z" fill="#3E3E3E"/>
</svg>
