<svg width="9" height="13" viewBox="0 0 9 13" fill="none" xmlns="http://www.w3.org/2000/svg">
<path d="M0.430664 5.16225L4.48842 0.367676L8.54618 5.16225H0.430664Z" fill="#3E3E3E"/>
<path d="M0.681689 5.3983C1.13999 4.85891 1.59477 4.31952 2.05308 3.78013C2.78284 2.91993 3.50908 2.05973 4.23884 1.19952C4.40806 1.0021 4.57375 0.804677 4.74297 0.603728C4.57728 0.603728 4.41158 0.603728 4.24589 0.603728C4.70419 1.14312 5.15897 1.68251 5.61728 2.2219C6.34704 3.0821 7.07328 3.9423 7.80304 4.80251C7.97226 4.99993 8.13795 5.19735 8.30717 5.3983C8.39178 5.19735 8.47287 4.9964 8.55748 4.79546C7.6444 4.79546 6.72779 4.79546 5.8147 4.79546C4.3587 4.79546 2.9027 4.79546 1.44318 4.79546C1.10826 4.79546 0.773349 4.79546 0.44196 4.79546C-0.0128195 4.79546 -0.0128195 5.50054 0.44196 5.50054C1.35504 5.50054 2.27165 5.50054 3.18474 5.50054C4.64074 5.50054 6.09674 5.50054 7.55626 5.50054C7.89118 5.50054 8.22609 5.50054 8.55748 5.50054C8.88182 5.50054 8.99816 5.12332 8.80778 4.89769C8.34948 4.3583 7.8947 3.81891 7.4364 3.27952C6.70663 2.41932 5.9804 1.55912 5.25063 0.698915C5.08141 0.501491 4.91572 0.304068 4.7465 0.103119C4.63016 -0.0343729 4.36223 -0.0343729 4.24942 0.103119C3.79111 0.642508 3.33633 1.1819 2.87803 1.72129C2.14826 2.58149 1.42203 3.44169 0.692265 4.3019C0.523045 4.49932 0.35735 4.69674 0.18813 4.89769C0.0647398 5.04223 0.0471127 5.25376 0.18813 5.39478C0.307994 5.52522 0.558299 5.54637 0.681689 5.3983Z" fill="#3E3E3E"/>
<path d="M0.430664 7.84131L4.48842 12.6359L8.54618 7.84131H0.430664Z" fill="#3E3E3E"/>
<path d="M0.184138 8.10236C0.642443 8.64175 1.09722 9.18114 1.55553 9.72053C2.28529 10.5807 3.01153 11.4409 3.74129 12.3011C3.91051 12.4986 4.0762 12.696 4.24542 12.8969C4.36176 13.0344 4.62969 13.0344 4.74251 12.8969C5.20081 12.3575 5.65559 11.8182 6.1139 11.2788C6.84366 10.4186 7.5699 9.55836 8.29966 8.69815C8.46888 8.50073 8.63457 8.30331 8.80379 8.10236C8.99416 7.87673 8.87783 7.49951 8.55349 7.49951C7.6404 7.49951 6.72379 7.49951 5.81071 7.49951C4.35471 7.49951 2.89871 7.49951 1.43919 7.49951C1.10427 7.49951 0.769358 7.49951 0.437969 7.49951C-0.0168107 7.49951 -0.0168107 8.2046 0.437969 8.2046C1.35105 8.2046 2.26766 8.2046 3.18075 8.2046C4.63674 8.2046 6.09274 8.2046 7.55227 8.2046C7.88718 8.2046 8.2221 8.2046 8.55349 8.2046C8.46888 8.00365 8.38779 7.8027 8.30318 7.60175C7.84488 8.14114 7.3901 8.68053 6.93179 9.21992C6.20203 10.0801 5.47579 10.9403 4.74603 11.8005C4.57681 11.9979 4.41112 12.1954 4.2419 12.3963C4.40759 12.3963 4.57329 12.3963 4.73898 12.3963C4.28068 11.8569 3.8259 11.3175 3.36759 10.7782C2.63783 9.91795 1.91159 9.05775 1.18183 8.19755C1.01261 8.00012 0.846917 7.8027 0.677697 7.60175C0.554307 7.45721 0.307528 7.47483 0.180613 7.60175C0.0395959 7.74629 0.0607484 7.95782 0.184138 8.10236Z" fill="#3E3E3E"/>
</svg>
