<svg width="10" height="13" viewBox="0 0 10 13" fill="none" xmlns="http://www.w3.org/2000/svg">
<path d="M0.614014 5.16225L4.67177 0.367676L8.72953 5.16225H0.614014Z" fill="#3E3E3E"/>
<path d="M0.865038 5.3983C1.32334 4.85891 1.77812 4.31952 2.23643 3.78013C2.96619 2.91993 3.69243 2.05973 4.42219 1.19952C4.59141 1.0021 4.7571 0.804677 4.92632 0.603728C4.76063 0.603728 4.59493 0.603728 4.42924 0.603728C4.88754 1.14312 5.34232 1.68251 5.80063 2.2219C6.53039 3.0821 7.25663 3.9423 7.98639 4.80251C8.15561 4.99993 8.3213 5.19735 8.49052 5.3983C8.57513 5.19735 8.65622 4.9964 8.74083 4.79546C7.82775 4.79546 6.91114 4.79546 5.99805 4.79546C4.54205 4.79546 3.08605 4.79546 1.62653 4.79546C1.29161 4.79546 0.956699 4.79546 0.625309 4.79546C0.17053 4.79546 0.17053 5.50054 0.625309 5.50054C1.53839 5.50054 2.455 5.50054 3.36809 5.50054C4.82409 5.50054 6.28009 5.50054 7.73961 5.50054C8.07452 5.50054 8.40944 5.50054 8.74083 5.50054C9.06517 5.50054 9.18151 5.12332 8.99113 4.89769C8.53283 4.3583 8.07805 3.81891 7.61975 3.27952C6.88998 2.41932 6.16375 1.55912 5.43398 0.698915C5.26476 0.501491 5.09907 0.304068 4.92985 0.103119C4.81351 -0.0343729 4.54558 -0.0343729 4.43276 0.103119C3.97446 0.642508 3.51968 1.1819 3.06138 1.72129C2.33161 2.58149 1.60538 3.44169 0.875615 4.3019C0.706394 4.49932 0.540699 4.69674 0.371479 4.89769C0.248089 5.04223 0.230462 5.25376 0.371479 5.39478C0.491344 5.52522 0.741648 5.54637 0.865038 5.3983Z" fill="#3E3E3E"/>
<path d="M0.614014 7.84131L4.67177 12.6359L8.72953 7.84131H0.614014Z" fill="#3E3E3E"/>
<path d="M0.367488 8.10236C0.825792 8.64175 1.28057 9.18114 1.73888 9.72053C2.46864 10.5807 3.19488 11.4409 3.92464 12.3011C4.09386 12.4986 4.25955 12.696 4.42877 12.8969C4.54511 13.0344 4.81304 13.0344 4.92586 12.8969C5.38416 12.3575 5.83894 11.8182 6.29725 11.2788C7.02701 10.4186 7.75324 9.55836 8.48301 8.69815C8.65223 8.50073 8.81792 8.30331 8.98714 8.10236C9.17751 7.87673 9.06118 7.49951 8.73684 7.49951C7.82375 7.49951 6.90714 7.49951 5.99406 7.49951C4.53806 7.49951 3.08206 7.49951 1.62254 7.49951C1.28762 7.49951 0.952708 7.49951 0.621318 7.49951C0.166539 7.49951 0.166539 8.2046 0.621318 8.2046C1.5344 8.2046 2.45101 8.2046 3.3641 8.2046C4.82009 8.2046 6.27609 8.2046 7.73562 8.2046C8.07053 8.2046 8.40545 8.2046 8.73684 8.2046C8.65223 8.00365 8.57114 7.8027 8.48653 7.60175C8.02823 8.14114 7.57345 8.68053 7.11514 9.21992C6.38538 10.0801 5.65914 10.9403 4.92938 11.8005C4.76016 11.9979 4.59447 12.1954 4.42525 12.3963C4.59094 12.3963 4.75664 12.3963 4.92233 12.3963C4.46403 11.8569 4.00925 11.3175 3.55094 10.7782C2.82118 9.91795 2.09494 9.05775 1.36518 8.19755C1.19596 8.00012 1.03027 7.8027 0.861046 7.60175C0.737657 7.45721 0.490878 7.47483 0.363962 7.60175C0.222946 7.74629 0.244098 7.95782 0.367488 8.10236Z" fill="#3E3E3E"/>
</svg>
