<svg width="10" height="13" viewBox="0 0 10 13" fill="none" xmlns="http://www.w3.org/2000/svg">
<path d="M0.797455 5.16225L4.85522 0.367676L8.91298 5.16225H0.797455Z" fill="#3E3E3E"/>
<path d="M1.04848 5.3983C1.50678 4.85891 1.96156 4.31952 2.41987 3.78013C3.14963 2.91993 3.87587 2.05973 4.60563 1.19952C4.77485 1.0021 4.94054 0.804677 5.10977 0.603728C4.94407 0.603728 4.77838 0.603728 4.61268 0.603728C5.07099 1.14312 5.52576 1.68251 5.98407 2.2219C6.71383 3.0821 7.44007 3.9423 8.16983 4.80251C8.33905 4.99993 8.50474 5.19735 8.67397 5.3983C8.75858 5.19735 8.83966 4.9964 8.92427 4.79546C8.01119 4.79546 7.09458 4.79546 6.18149 4.79546C4.72549 4.79546 3.2695 4.79546 1.80997 4.79546C1.47506 4.79546 1.14014 4.79546 0.808751 4.79546C0.353971 4.79546 0.353971 5.50054 0.808751 5.50054C1.72183 5.50054 2.63844 5.50054 3.55153 5.50054C5.00753 5.50054 6.46353 5.50054 7.92305 5.50054C8.25797 5.50054 8.59288 5.50054 8.92427 5.50054C9.24861 5.50054 9.36495 5.12332 9.17458 4.89769C8.71627 4.3583 8.26149 3.81891 7.80319 3.27952C7.07342 2.41932 6.34719 1.55912 5.61743 0.698915C5.44821 0.501491 5.28251 0.304068 5.11329 0.103119C4.99695 -0.0343729 4.72902 -0.0343729 4.61621 0.103119C4.1579 0.642508 3.70312 1.1819 3.24482 1.72129C2.51505 2.58149 1.78882 3.44169 1.05906 4.3019C0.889836 4.49932 0.724141 4.69674 0.55492 4.89769C0.431531 5.04223 0.413904 5.25376 0.55492 5.39478C0.674785 5.52522 0.92509 5.54637 1.04848 5.3983Z" fill="#3E3E3E"/>
<path d="M0.797455 7.84131L4.85522 12.6359L8.91298 7.84131H0.797455Z" fill="#3E3E3E"/>
<path d="M0.550929 8.10236C1.00923 8.64175 1.46401 9.18114 1.92232 9.72053C2.65208 10.5807 3.37832 11.4409 4.10808 12.3011C4.2773 12.4986 4.44299 12.696 4.61221 12.8969C4.72855 13.0344 4.99649 13.0344 5.1093 12.8969C5.5676 12.3575 6.02238 11.8182 6.48069 11.2788C7.21045 10.4186 7.93669 9.55836 8.66645 8.69815C8.83567 8.50073 9.00136 8.30331 9.17058 8.10236C9.36096 7.87673 9.24462 7.49951 8.92028 7.49951C8.00719 7.49951 7.09058 7.49951 6.1775 7.49951C4.7215 7.49951 3.2655 7.49951 1.80598 7.49951C1.47106 7.49951 1.13615 7.49951 0.804759 7.49951C0.34998 7.49951 0.34998 8.2046 0.804759 8.2046C1.71784 8.2046 2.63445 8.2046 3.54754 8.2046C5.00354 8.2046 6.45953 8.2046 7.91906 8.2046C8.25397 8.2046 8.58889 8.2046 8.92028 8.2046C8.83567 8.00365 8.75458 7.8027 8.66997 7.60175C8.21167 8.14114 7.75689 8.68053 7.29858 9.21992C6.56882 10.0801 5.84259 10.9403 5.11282 11.8005C4.9436 11.9979 4.77791 12.1954 4.60869 12.3963C4.77438 12.3963 4.94008 12.3963 5.10577 12.3963C4.64747 11.8569 4.19269 11.3175 3.73438 10.7782C3.00462 9.91795 2.27839 9.05775 1.54862 8.19755C1.3794 8.00012 1.21371 7.8027 1.04449 7.60175C0.921098 7.45721 0.674319 7.47483 0.547404 7.60175C0.406387 7.74629 0.427539 7.95782 0.550929 8.10236Z" fill="#3E3E3E"/>
</svg>
