<svg width="9" height="13" viewBox="0 0 9 13" fill="none" xmlns="http://www.w3.org/2000/svg">
<path d="M0.347656 5.16225L4.40542 0.367676L8.46318 5.16225H0.347656Z" fill="#3E3E3E"/>
<path d="M0.598681 5.3983C1.05699 4.85891 1.51176 4.31952 1.97007 3.78013C2.69983 2.91993 3.42607 2.05973 4.15583 1.19952C4.32505 1.0021 4.49075 0.804677 4.65997 0.603728C4.49427 0.603728 4.32858 0.603728 4.16288 0.603728C4.62119 1.14312 5.07597 1.68251 5.53427 2.2219C6.26403 3.0821 6.99027 3.9423 7.72003 4.80251C7.88925 4.99993 8.05495 5.19735 8.22417 5.3983C8.30878 5.19735 8.38986 4.9964 8.47447 4.79546C7.56139 4.79546 6.64478 4.79546 5.73169 4.79546C4.2757 4.79546 2.8197 4.79546 1.36017 4.79546C1.02526 4.79546 0.690342 4.79546 0.358952 4.79546C-0.0958273 4.79546 -0.0958273 5.50054 0.358952 5.50054C1.27204 5.50054 2.18865 5.50054 3.10173 5.50054C4.55773 5.50054 6.01373 5.50054 7.47325 5.50054C7.80817 5.50054 8.14308 5.50054 8.47447 5.50054C8.79881 5.50054 8.91515 5.12332 8.72478 4.89769C8.26647 4.3583 7.81169 3.81891 7.35339 3.27952C6.62363 2.41932 5.89739 1.55912 5.16763 0.698915C4.99841 0.501491 4.83271 0.304068 4.66349 0.103119C4.54715 -0.0343729 4.27922 -0.0343729 4.16641 0.103119C3.7081 0.642508 3.25332 1.1819 2.79502 1.72129C2.06526 2.58149 1.33902 3.44169 0.609257 4.3019C0.440037 4.49932 0.274342 4.69674 0.105122 4.89769C-0.018268 5.04223 -0.0358951 5.25376 0.105122 5.39478C0.224986 5.52522 0.475291 5.54637 0.598681 5.3983Z" fill="#3E3E3E"/>
<path d="M0.347656 7.84131L4.40542 12.6359L8.46318 7.84131H0.347656Z" fill="#3E3E3E"/>
<path d="M0.10113 8.10236C0.559435 8.64175 1.01421 9.18114 1.47252 9.72053C2.20228 10.5807 2.92852 11.4409 3.65828 12.3011C3.8275 12.4986 3.9932 12.696 4.16242 12.8969C4.27875 13.0344 4.54669 13.0344 4.6595 12.8969C5.1178 12.3575 5.57258 11.8182 6.03089 11.2788C6.76065 10.4186 7.48689 9.55836 8.21665 8.69815C8.38587 8.50073 8.55156 8.30331 8.72078 8.10236C8.91116 7.87673 8.79482 7.49951 8.47048 7.49951C7.5574 7.49951 6.64079 7.49951 5.7277 7.49951C4.2717 7.49951 2.8157 7.49951 1.35618 7.49951C1.02127 7.49951 0.68635 7.49951 0.354961 7.49951C-0.0998185 7.49951 -0.0998185 8.2046 0.354961 8.2046C1.26804 8.2046 2.18465 8.2046 3.09774 8.2046C4.55374 8.2046 6.00974 8.2046 7.46926 8.2046C7.80417 8.2046 8.13909 8.2046 8.47048 8.2046C8.38587 8.00365 8.30479 7.8027 8.22018 7.60175C7.76187 8.14114 7.30709 8.68053 6.84879 9.21992C6.11902 10.0801 5.39279 10.9403 4.66302 11.8005C4.4938 11.9979 4.32811 12.1954 4.15889 12.3963C4.32458 12.3963 4.49028 12.3963 4.65597 12.3963C4.19767 11.8569 3.74289 11.3175 3.28459 10.7782C2.55482 9.91795 1.82859 9.05775 1.09882 8.19755C0.929604 8.00012 0.763909 7.8027 0.594689 7.60175C0.471299 7.45721 0.22452 7.47483 0.097605 7.60175C-0.0434119 7.74629 -0.0222594 7.95782 0.10113 8.10236Z" fill="#3E3E3E"/>
</svg>
