<svg width="10" height="13" viewBox="0 0 10 13" fill="none" xmlns="http://www.w3.org/2000/svg">
<path d="M0.614044 5.16225L4.6718 0.367676L8.72956 5.16225H0.614044Z" fill="#3E3E3E"/>
<path d="M0.865069 5.3983C1.32337 4.85891 1.77815 4.31952 2.23646 3.78013C2.96622 2.91993 3.69246 2.05973 4.42222 1.19952C4.59144 1.0021 4.75713 0.804677 4.92635 0.603728C4.76066 0.603728 4.59496 0.603728 4.42927 0.603728C4.88757 1.14312 5.34235 1.68251 5.80066 2.2219C6.53042 3.0821 7.25666 3.9423 7.98642 4.80251C8.15564 4.99993 8.32133 5.19735 8.49055 5.3983C8.57516 5.19735 8.65625 4.9964 8.74086 4.79546C7.82778 4.79546 6.91117 4.79546 5.99808 4.79546C4.54208 4.79546 3.08608 4.79546 1.62656 4.79546C1.29164 4.79546 0.95673 4.79546 0.62534 4.79546C0.170561 4.79546 0.170561 5.50054 0.62534 5.50054C1.53842 5.50054 2.45503 5.50054 3.36812 5.50054C4.82412 5.50054 6.28012 5.50054 7.73964 5.50054C8.07456 5.50054 8.40947 5.50054 8.74086 5.50054C9.0652 5.50054 9.18154 5.12332 8.99116 4.89769C8.53286 4.3583 8.07808 3.81891 7.61978 3.27952C6.89001 2.41932 6.16378 1.55912 5.43401 0.698915C5.26479 0.501491 5.0991 0.304068 4.92988 0.103119C4.81354 -0.0343729 4.54561 -0.0343729 4.4328 0.103119C3.97449 0.642508 3.51971 1.1819 3.06141 1.72129C2.33164 2.58149 1.60541 3.44169 0.875645 4.3019C0.706425 4.49932 0.54073 4.69674 0.37151 4.89769C0.24812 5.04223 0.230493 5.25376 0.37151 5.39478C0.491374 5.52522 0.741679 5.54637 0.865069 5.3983Z" fill="#3E3E3E"/>
<path d="M0.614044 7.84131L4.6718 12.6359L8.72956 7.84131H0.614044Z" fill="#3E3E3E"/>
<path d="M0.367518 8.10236C0.825823 8.64175 1.2806 9.18114 1.73891 9.72053C2.46867 10.5807 3.19491 11.4409 3.92467 12.3011C4.09389 12.4986 4.25958 12.696 4.4288 12.8969C4.54514 13.0344 4.81307 13.0344 4.92589 12.8969C5.38419 12.3575 5.83897 11.8182 6.29728 11.2788C7.02704 10.4186 7.75328 9.55836 8.48304 8.69815C8.65226 8.50073 8.81795 8.30331 8.98717 8.10236C9.17755 7.87673 9.06121 7.49951 8.73687 7.49951C7.82378 7.49951 6.90717 7.49951 5.99409 7.49951C4.53809 7.49951 3.08209 7.49951 1.62257 7.49951C1.28765 7.49951 0.952738 7.49951 0.621349 7.49951C0.166569 7.49951 0.166569 8.2046 0.621349 8.2046C1.53443 8.2046 2.45104 8.2046 3.36413 8.2046C4.82012 8.2046 6.27612 8.2046 7.73565 8.2046C8.07056 8.2046 8.40548 8.2046 8.73687 8.2046C8.65226 8.00365 8.57117 7.8027 8.48656 7.60175C8.02826 8.14114 7.57348 8.68053 7.11517 9.21992C6.38541 10.0801 5.65917 10.9403 4.92941 11.8005C4.76019 11.9979 4.5945 12.1954 4.42528 12.3963C4.59097 12.3963 4.75667 12.3963 4.92236 12.3963C4.46406 11.8569 4.00928 11.3175 3.55097 10.7782C2.82121 9.91795 2.09497 9.05775 1.36521 8.19755C1.19599 8.00012 1.0303 7.8027 0.861077 7.60175C0.737687 7.45721 0.490908 7.47483 0.363993 7.60175C0.222976 7.74629 0.244129 7.95782 0.367518 8.10236Z" fill="#3E3E3E"/>
</svg>
