<svg width="9" height="13" viewBox="0 0 9 13" fill="none" xmlns="http://www.w3.org/2000/svg">
<path d="M0.430603 5.16225L4.48836 0.367676L8.54612 5.16225H0.430603Z" fill="#3E3E3E"/>
<path d="M0.681628 5.3983C1.13993 4.85891 1.59471 4.31952 2.05302 3.78013C2.78278 2.91993 3.50902 2.05973 4.23878 1.19952C4.408 1.0021 4.57369 0.804677 4.74291 0.603728C4.57722 0.603728 4.41152 0.603728 4.24583 0.603728C4.70413 1.14312 5.15891 1.68251 5.61722 2.2219C6.34698 3.0821 7.07322 3.9423 7.80298 4.80251C7.9722 4.99993 8.13789 5.19735 8.30711 5.3983C8.39172 5.19735 8.47281 4.9964 8.55742 4.79546C7.64433 4.79546 6.72773 4.79546 5.81464 4.79546C4.35864 4.79546 2.90264 4.79546 1.44312 4.79546C1.1082 4.79546 0.773288 4.79546 0.441899 4.79546C-0.0128805 4.79546 -0.0128805 5.50054 0.441899 5.50054C1.35498 5.50054 2.27159 5.50054 3.18468 5.50054C4.64068 5.50054 6.09667 5.50054 7.5562 5.50054C7.89111 5.50054 8.22603 5.50054 8.55742 5.50054C8.88176 5.50054 8.9981 5.12332 8.80772 4.89769C8.34942 4.3583 7.89464 3.81891 7.43633 3.27952C6.70657 2.41932 5.98034 1.55912 5.25057 0.698915C5.08135 0.501491 4.91566 0.304068 4.74644 0.103119C4.6301 -0.0343729 4.36217 -0.0343729 4.24935 0.103119C3.79105 0.642508 3.33627 1.1819 2.87797 1.72129C2.1482 2.58149 1.42197 3.44169 0.692204 4.3019C0.522984 4.49932 0.357289 4.69674 0.188069 4.89769C0.0646788 5.04223 0.0470517 5.25376 0.188069 5.39478C0.307933 5.52522 0.558238 5.54637 0.681628 5.3983Z" fill="#3E3E3E"/>
<path d="M0.430603 7.84131L4.48836 12.6359L8.54612 7.84131H0.430603Z" fill="#3E3E3E"/>
<path d="M0.184077 8.10236C0.642382 8.64175 1.09716 9.18114 1.55547 9.72053C2.28523 10.5807 3.01146 11.4409 3.74123 12.3011C3.91045 12.4986 4.07614 12.696 4.24536 12.8969C4.3617 13.0344 4.62963 13.0344 4.74245 12.8969C5.20075 12.3575 5.65553 11.8182 6.11384 11.2788C6.8436 10.4186 7.56983 9.55836 8.2996 8.69815C8.46882 8.50073 8.63451 8.30331 8.80373 8.10236C8.9941 7.87673 8.87776 7.49951 8.55343 7.49951C7.64034 7.49951 6.72373 7.49951 5.81065 7.49951C4.35465 7.49951 2.89865 7.49951 1.43913 7.49951C1.10421 7.49951 0.769297 7.49951 0.437908 7.49951C-0.0168717 7.49951 -0.0168717 8.2046 0.437908 8.2046C1.35099 8.2046 2.2676 8.2046 3.18068 8.2046C4.63668 8.2046 6.09268 8.2046 7.55221 8.2046C7.88712 8.2046 8.22204 8.2046 8.55343 8.2046C8.46882 8.00365 8.38773 7.8027 8.30312 7.60175C7.84482 8.14114 7.39004 8.68053 6.93173 9.21992C6.20197 10.0801 5.47573 10.9403 4.74597 11.8005C4.57675 11.9979 4.41106 12.1954 4.24184 12.3963C4.40753 12.3963 4.57323 12.3963 4.73892 12.3963C4.28062 11.8569 3.82584 11.3175 3.36753 10.7782C2.63777 9.91795 1.91153 9.05775 1.18177 8.19755C1.01255 8.00012 0.846856 7.8027 0.677636 7.60175C0.554246 7.45721 0.307467 7.47483 0.180552 7.60175C0.0395349 7.74629 0.0606874 7.95782 0.184077 8.10236Z" fill="#3E3E3E"/>
</svg>
