<svg width="10" height="13" viewBox="0 0 10 13" fill="none" xmlns="http://www.w3.org/2000/svg">
<path d="M1.16766 5.16225L5.22542 0.367676L9.28318 5.16225H1.16766Z" fill="#3E3E3E"/>
<path d="M1.41869 5.3983C1.87699 4.85891 2.33177 4.31952 2.79008 3.78013C3.51984 2.91993 4.24608 2.05973 4.97584 1.19952C5.14506 1.0021 5.31075 0.804677 5.47997 0.603728C5.31428 0.603728 5.14858 0.603728 4.98289 0.603728C5.44119 1.14312 5.89597 1.68251 6.35428 2.2219C7.08404 3.0821 7.81028 3.9423 8.54004 4.80251C8.70926 4.99993 8.87495 5.19735 9.04417 5.3983C9.12878 5.19735 9.20987 4.9964 9.29448 4.79546C8.38139 4.79546 7.46479 4.79546 6.5517 4.79546C5.0957 4.79546 3.6397 4.79546 2.18018 4.79546C1.84526 4.79546 1.51035 4.79546 1.17896 4.79546C0.72418 4.79546 0.72418 5.50054 1.17896 5.50054C2.09204 5.50054 3.00865 5.50054 3.92174 5.50054C5.37774 5.50054 6.83374 5.50054 8.29326 5.50054C8.62817 5.50054 8.96309 5.50054 9.29448 5.50054C9.61882 5.50054 9.73516 5.12332 9.54478 4.89769C9.08648 4.3583 8.6317 3.81891 8.1734 3.27952C7.44363 2.41932 6.7174 1.55912 5.98763 0.698915C5.81841 0.501491 5.65272 0.304068 5.4835 0.103119C5.36716 -0.0343729 5.09923 -0.0343729 4.98641 0.103119C4.52811 0.642508 4.07333 1.1819 3.61503 1.72129C2.88526 2.58149 2.15903 3.44169 1.42926 4.3019C1.26004 4.49932 1.09435 4.69674 0.925129 4.89769C0.801739 5.04223 0.784112 5.25376 0.925129 5.39478C1.04499 5.52522 1.2953 5.54637 1.41869 5.3983Z" fill="#3E3E3E"/>
<path d="M1.16766 7.84131L5.22542 12.6359L9.28318 7.84131H1.16766Z" fill="#3E3E3E"/>
<path d="M0.921138 8.10236C1.37944 8.64175 1.83422 9.18114 2.29253 9.72053C3.02229 10.5807 3.74853 11.4409 4.47829 12.3011C4.64751 12.4986 4.8132 12.696 4.98242 12.8969C5.09876 13.0344 5.36669 13.0344 5.47951 12.8969C5.93781 12.3575 6.39259 11.8182 6.8509 11.2788C7.58066 10.4186 8.30689 9.55836 9.03666 8.69815C9.20588 8.50073 9.37157 8.30331 9.54079 8.10236C9.73116 7.87673 9.61483 7.49951 9.29049 7.49951C8.3774 7.49951 7.46079 7.49951 6.54771 7.49951C5.09171 7.49951 3.63571 7.49951 2.17619 7.49951C1.84127 7.49951 1.50636 7.49951 1.17497 7.49951C0.720189 7.49951 0.720189 8.2046 1.17497 8.2046C2.08805 8.2046 3.00466 8.2046 3.91775 8.2046C5.37374 8.2046 6.82974 8.2046 8.28927 8.2046C8.62418 8.2046 8.9591 8.2046 9.29049 8.2046C9.20588 8.00365 9.12479 7.8027 9.04018 7.60175C8.58188 8.14114 8.1271 8.68053 7.66879 9.21992C6.93903 10.0801 6.21279 10.9403 5.48303 11.8005C5.31381 11.9979 5.14812 12.1954 4.9789 12.3963C5.14459 12.3963 5.31029 12.3963 5.47598 12.3963C5.01768 11.8569 4.5629 11.3175 4.10459 10.7782C3.37483 9.91795 2.64859 9.05775 1.91883 8.19755C1.74961 8.00012 1.58392 7.8027 1.4147 7.60175C1.29131 7.45721 1.04453 7.47483 0.917612 7.60175C0.776595 7.74629 0.797748 7.95782 0.921138 8.10236Z" fill="#3E3E3E"/>
</svg>
