<svg width="48" height="49" viewBox="0 0 48 49" fill="none" xmlns="http://www.w3.org/2000/svg">
<circle cx="24" cy="24.5" r="24" fill="#D8EDFE"/>
<g clip-path="url(#clip0_2402_2378)">
<path d="M26.5431 31.4641C26.4353 31.9524 26.188 32.3901 25.8455 32.7326C25.3698 33.2082 24.7165 33.5 23.9998 33.5C23.2831 33.5 22.6298 33.2082 22.1541 32.7326C21.8116 32.3901 21.5643 31.9524 21.4565 31.4641H17.689C17.2133 31.4641 16.782 31.2738 16.4713 30.9567C16.1605 30.6459 15.9639 30.2146 15.9639 29.7389C15.9639 29.2632 16.1605 28.8319 16.4713 28.5211C16.6869 28.3055 16.9596 28.1469 17.2641 28.0645C17.4607 27.4302 17.6256 26.6818 17.7461 25.9271C17.911 24.9249 17.9998 23.9165 17.9998 23.1617C17.9998 21.5063 18.6721 20.0095 19.763 18.9186C20.2387 18.4429 20.7968 18.0433 21.4121 17.7452C21.4945 17.1744 21.7609 16.6607 22.1541 16.2674C22.6298 15.7918 23.2831 15.5 23.9998 15.5C24.7165 15.5 25.3698 15.7918 25.8455 16.2674C26.2387 16.6607 26.5051 17.1744 26.5875 17.7452C27.2028 18.0433 27.7609 18.4429 28.2366 18.9186C29.3275 20.0095 29.9998 21.5063 29.9998 23.1617C29.9998 23.9165 30.0886 24.9249 30.2535 25.9271C30.374 26.6818 30.5389 27.4302 30.7355 28.0645C31.04 28.1469 31.3127 28.3055 31.5283 28.5211C31.8391 28.8319 32.0357 29.2632 32.0357 29.7389C32.0357 30.2146 31.8391 30.6459 31.5283 30.9567C31.2176 31.2738 30.7863 31.4641 30.3106 31.4641H26.5431V31.4641ZM22.8011 17.2822C23.188 17.1998 23.5875 17.1554 23.9998 17.1554C24.4121 17.1554 24.8116 17.1998 25.1985 17.2822C25.1478 17.2061 25.0971 17.1364 25.0336 17.0729C24.7672 16.8129 24.4057 16.648 23.9998 16.648C23.5939 16.648 23.2324 16.8129 22.966 17.0729C22.9026 17.1364 22.8518 17.2061 22.8011 17.2822ZM21.3867 30.3161H26.6129H30.3106C30.4692 30.3161 30.6087 30.2463 30.7165 30.1448C30.818 30.0433 30.8878 29.8975 30.8878 29.7389C30.8878 29.5803 30.818 29.4345 30.7165 29.333C30.615 29.2252 30.4692 29.1617 30.3106 29.1617C30.0759 29.1617 29.8539 29.0159 29.7715 28.7812C29.4924 28.0074 29.2704 27.056 29.1182 26.1173C28.9406 25.0391 28.8518 23.9672 28.8518 23.1617C28.8518 21.8235 28.3064 20.6121 27.4248 19.7368C26.5431 18.8552 25.3317 18.3097 23.9998 18.3097C22.6679 18.3097 21.4565 18.8552 20.5749 19.7368C19.6933 20.6121 19.1478 21.8235 19.1478 23.1617C19.1478 23.9672 19.059 25.0391 18.8814 26.1173C18.7292 27.037 18.5199 27.963 18.2472 28.7304C18.1837 28.9778 17.9618 29.1617 17.689 29.1617C17.5305 29.1617 17.3909 29.2315 17.2831 29.333C17.1816 29.4345 17.1119 29.5803 17.1119 29.7389C17.1119 29.8975 17.1816 30.0433 17.2831 30.1448C17.3909 30.2463 17.5305 30.3161 17.689 30.3161H21.3867V30.3161ZM25.0336 31.9271C25.1605 31.7939 25.2683 31.6353 25.3444 31.4641H22.6552C22.7313 31.6353 22.8391 31.7939 22.966 31.9271C23.2324 32.1871 23.5939 32.352 23.9998 32.352C24.4057 32.352 24.7672 32.1871 25.0336 31.9271Z" fill="black"/>
</g>
<defs>
<clipPath id="clip0_2402_2378">
<rect width="18" height="18" fill="white" transform="translate(15 15.5)"/>
</clipPath>
</defs>
</svg>
