<svg width="48" height="48" viewBox="0 0 48 48" fill="none" xmlns="http://www.w3.org/2000/svg">
<circle cx="24" cy="24" r="24" fill="#D8EDFE"/>
<g clip-path="url(#clip0_2402_1458)">
<path d="M26.5431 30.9641C26.4353 31.4524 26.188 31.8901 25.8455 32.2326C25.3698 32.7082 24.7165 33 23.9998 33C23.2831 33 22.6298 32.7082 22.1541 32.2326C21.8116 31.8901 21.5643 31.4524 21.4565 30.9641H17.689C17.2133 30.9641 16.782 30.7738 16.4713 30.4567C16.1605 30.1459 15.9639 29.7146 15.9639 29.2389C15.9639 28.7632 16.1605 28.3319 16.4713 28.0211C16.6869 27.8055 16.9596 27.6469 17.2641 27.5645C17.4607 26.9302 17.6256 26.1818 17.7461 25.4271C17.911 24.4249 17.9998 23.4165 17.9998 22.6617C17.9998 21.0063 18.6721 19.5095 19.763 18.4186C20.2387 17.9429 20.7968 17.5433 21.4121 17.2452C21.4945 16.6744 21.7609 16.1607 22.1541 15.7674C22.6298 15.2918 23.2831 15 23.9998 15C24.7165 15 25.3698 15.2918 25.8455 15.7674C26.2387 16.1607 26.5051 16.6744 26.5875 17.2452C27.2028 17.5433 27.7609 17.9429 28.2366 18.4186C29.3275 19.5095 29.9998 21.0063 29.9998 22.6617C29.9998 23.4165 30.0886 24.4249 30.2535 25.4271C30.374 26.1818 30.5389 26.9302 30.7355 27.5645C31.04 27.6469 31.3127 27.8055 31.5283 28.0211C31.8391 28.3319 32.0357 28.7632 32.0357 29.2389C32.0357 29.7146 31.8391 30.1459 31.5283 30.4567C31.2176 30.7738 30.7863 30.9641 30.3106 30.9641H26.5431V30.9641ZM22.8011 16.7822C23.188 16.6998 23.5875 16.6554 23.9998 16.6554C24.4121 16.6554 24.8116 16.6998 25.1985 16.7822C25.1478 16.7061 25.0971 16.6364 25.0336 16.5729C24.7672 16.3129 24.4057 16.148 23.9998 16.148C23.5939 16.148 23.2324 16.3129 22.966 16.5729C22.9026 16.6364 22.8518 16.7061 22.8011 16.7822ZM21.3867 29.8161H26.6129H30.3106C30.4692 29.8161 30.6087 29.7463 30.7165 29.6448C30.818 29.5433 30.8878 29.3975 30.8878 29.2389C30.8878 29.0803 30.818 28.9345 30.7165 28.833C30.615 28.7252 30.4692 28.6617 30.3106 28.6617C30.0759 28.6617 29.8539 28.5159 29.7715 28.2812C29.4924 27.5074 29.2704 26.556 29.1182 25.6173C28.9406 24.5391 28.8518 23.4672 28.8518 22.6617C28.8518 21.3235 28.3064 20.1121 27.4248 19.2368C26.5431 18.3552 25.3317 17.8097 23.9998 17.8097C22.6679 17.8097 21.4565 18.3552 20.5749 19.2368C19.6933 20.1121 19.1478 21.3235 19.1478 22.6617C19.1478 23.4672 19.059 24.5391 18.8814 25.6173C18.7292 26.537 18.5199 27.463 18.2472 28.2304C18.1837 28.4778 17.9618 28.6617 17.689 28.6617C17.5305 28.6617 17.3909 28.7315 17.2831 28.833C17.1816 28.9345 17.1119 29.0803 17.1119 29.2389C17.1119 29.3975 17.1816 29.5433 17.2831 29.6448C17.3909 29.7463 17.5305 29.8161 17.689 29.8161H21.3867V29.8161ZM25.0336 31.4271C25.1605 31.2939 25.2683 31.1353 25.3444 30.9641H22.6552C22.7313 31.1353 22.8391 31.2939 22.966 31.4271C23.2324 31.6871 23.5939 31.852 23.9998 31.852C24.4057 31.852 24.7672 31.6871 25.0336 31.4271Z" fill="black"/>
</g>
<defs>
<clipPath id="clip0_2402_1458">
<rect width="18" height="18" fill="white" transform="translate(15 15)"/>
</clipPath>
</defs>
</svg>
