<svg width="48" height="48" viewBox="0 0 48 48" fill="none" xmlns="http://www.w3.org/2000/svg">
<circle cx="24" cy="24" r="24" fill="#D8EDFE"/>
<path d="M32.4444 19.0281L32.5931 19.0473C32.5721 19.2108 32.4921 19.3612 32.3682 19.47C32.2443 19.5788 32.085 19.6387 31.9202 19.6385H31.9202V19.4885L31.92 19.6385L31.8494 19.6385H31.8396L31.8298 19.6373L30.5353 19.4675C31.6001 20.9559 32.1672 22.7468 32.1496 24.5829C32.1308 26.5388 31.4498 28.4306 30.2175 29.9496C28.9852 31.4685 27.2745 32.525 25.3645 32.9467C23.4545 33.3683 21.458 33.1301 19.7008 32.271C17.9436 31.4119 16.5295 29.9827 15.6891 28.2164C14.8487 26.4502 14.6318 24.4513 15.0736 22.5459C15.5155 20.6405 16.5901 18.9411 18.1221 17.725C19.654 16.509 21.5529 15.848 23.5089 15.85M32.4444 19.0281L23.5087 16M32.4444 19.0281L32.5942 19.0352C32.5985 18.9454 32.5849 18.8556 32.5543 18.771C32.5236 18.6864 32.4766 18.6087 32.4158 18.5425C32.355 18.4762 32.2816 18.4226 32.2 18.3848C32.1206 18.348 32.0349 18.3269 31.9476 18.3225L28.841 17.909L28.8312 17.9077H28.8212H28.6937H28.6335H28.6123H28.5868L28.5627 17.9161L28.4919 17.9409L28.485 17.9433L28.4783 17.9464C28.4453 17.9617 28.4137 17.9797 28.3837 18.0003M32.4444 19.0281L28.3837 18.0003M23.5089 15.85L23.5087 16M23.5089 15.85C23.5088 15.85 23.5088 15.85 23.5087 15.85V16M23.5089 15.85C23.6895 15.85 23.8627 15.9218 23.9905 16.0495C24.1182 16.1773 24.19 16.3506 24.19 16.5313C24.19 16.7119 24.1182 16.8852 23.9905 17.013C23.8627 17.1407 23.6894 17.2125 23.5087 17.2125H23.5087C21.855 17.2118 20.2503 17.7736 18.9581 18.8055C17.6659 19.8375 16.7632 21.2782 16.3981 22.8911C16.033 24.5039 16.2273 26.193 16.9491 27.6808C17.6708 29.1686 18.8772 30.3668 20.3699 31.0783C21.8627 31.7899 23.553 31.9726 25.1633 31.5965C26.7737 31.2203 28.2082 30.3077 29.2312 29.0085C30.2543 27.7092 30.805 26.1007 30.793 24.4471C30.782 22.9301 30.298 21.4579 29.4137 20.2335M23.5087 16C23.6496 16 23.7848 16.056 23.8844 16.1556C23.984 16.2552 24.04 16.3904 24.04 16.5313C24.04 16.6722 23.984 16.8073 23.8844 16.9069C23.7848 17.0065 23.6496 17.0625 23.5087 17.0625C21.821 17.0618 20.1833 17.6352 18.8645 18.6883C17.5457 19.7415 16.6244 21.2119 16.2518 22.8579C15.8792 24.504 16.0775 26.2278 16.8141 27.7463C17.5507 29.2647 18.7819 30.4875 20.3054 31.2137C21.8288 31.9399 23.554 32.1264 25.1975 31.7425C26.8409 31.3587 28.305 30.4272 29.3491 29.1013C30.3932 27.7753 30.9553 26.1337 30.943 24.446C30.9313 22.8352 30.3971 21.274 29.424 19.9955L29.4137 20.2335M29.4137 20.2335L29.343 21.875L29.3429 21.8755C29.3348 22.0499 29.2601 22.2144 29.1342 22.3353C29.0082 22.4561 28.8408 22.524 28.6662 22.525L28.6654 22.525L28.6406 22.525H28.6358L28.6358 22.5249C28.546 22.522 28.4577 22.5012 28.3761 22.4637C28.2945 22.4263 28.2213 22.3729 28.1606 22.3067C28.0999 22.2405 28.0531 22.1628 28.0228 22.0783C27.9926 21.994 27.9796 21.9046 27.9843 21.8152C27.9843 21.8149 27.9844 21.8146 27.9844 21.8143L28.1253 18.5329C28.1241 18.5205 28.124 18.508 28.1251 18.4956C28.1241 18.4773 28.1244 18.459 28.1258 18.4408V18.3942V18.3837C28.1235 18.3623 28.1247 18.3406 28.1293 18.3195L28.1322 18.3062L28.1375 18.2937C28.1493 18.2656 28.1629 18.2383 28.1783 18.212L28.1795 18.21L28.1795 18.21C28.1985 18.1788 28.2202 18.1493 28.2443 18.1219M29.4137 20.2335C29.3675 20.1695 29.3202 20.1061 29.2718 20.0435L29.1931 21.8685C29.1868 22.0045 29.1285 22.1328 29.0303 22.227C28.9321 22.3213 28.8015 22.3742 28.6654 22.375L28.3837 18.0003M28.3837 18.0003C28.3318 18.0341 28.2849 18.0751 28.2443 18.1219M28.2443 18.1219C28.2445 18.1217 28.2447 18.1215 28.2449 18.1213L28.3573 18.2206L28.2437 18.1226C28.2439 18.1224 28.2441 18.1222 28.2443 18.1219ZM30.2025 19.2725C30.2458 19.328 30.2884 19.3841 30.3302 19.4405L30.4125 19.3001L30.2025 19.2725Z" fill="#2C3E50" stroke="#263643" stroke-width="0.3"/>
</svg>
