<svg width="40" height="39" viewBox="0 0 40 39" fill="none" xmlns="http://www.w3.org/2000/svg">
<path d="M20.3631 1.26781C20.2527 0.910728 19.7473 0.910728 19.6369 1.26781L18.9615 3.45378C18.9123 3.61302 18.765 3.72161 18.5984 3.72161H16.3735C16.0099 3.72161 15.8539 4.18291 16.1427 4.40357L17.975 5.80334C18.1015 5.90001 18.1544 6.06533 18.1074 6.21749L17.4155 8.45703C17.3062 8.81051 17.7151 9.0958 18.0092 8.8712L19.7694 7.52651C19.9056 7.42246 20.0945 7.42246 20.2307 7.52651L21.9908 8.8712C22.285 9.0958 22.6938 8.81051 22.5846 8.45703L21.8926 6.21749C21.8457 6.06533 21.8985 5.90001 22.025 5.80334L23.8574 4.40357C24.1462 4.18291 23.99 3.72161 23.6266 3.72161H21.4017C21.235 3.72161 21.0878 3.61302 21.0386 3.45378L20.3631 1.26781Z" fill="#0156AD" stroke="white" stroke-width="0.5"/>
<path d="M16.2 17.1929C15.6753 17.1929 15.25 17.6183 15.25 18.1429V20.0429C15.25 20.5675 15.6753 20.9929 16.2 20.9929H18.1C18.6246 20.9929 19.05 20.5675 19.05 20.0429V18.1429C19.05 17.6183 18.6246 17.1929 18.1 17.1929H16.2Z" fill="#0156AD" stroke="white" stroke-width="0.5"/>
<path d="M15.25 23.8429C15.25 23.3183 15.6753 22.8929 16.2 22.8929H18.1C18.6246 22.8929 19.05 23.3183 19.05 23.8429V25.7429C19.05 26.2675 18.6246 26.6929 18.1 26.6929H16.2C15.6753 26.6929 15.25 26.2675 15.25 25.7429V23.8429Z" fill="#0156AD" stroke="white" stroke-width="0.5"/>
<path d="M16.2 28.5929C15.6753 28.5929 15.25 29.0183 15.25 29.5429V31.4429C15.25 31.9675 15.6753 32.3929 16.2 32.3929H18.1C18.6246 32.3929 19.05 31.9675 19.05 31.4429V29.5429C19.05 29.0183 18.6246 28.5929 18.1 28.5929H16.2Z" fill="#0156AD" stroke="white" stroke-width="0.5"/>
<path d="M20.9502 18.1429C20.9502 17.6183 21.3756 17.1929 21.9002 17.1929H23.8002C24.3248 17.1929 24.7502 17.6183 24.7502 18.1429V20.0429C24.7502 20.5675 24.3248 20.9929 23.8002 20.9929H21.9002C21.3756 20.9929 20.9502 20.5675 20.9502 20.0429V18.1429Z" fill="#0156AD" stroke="white" stroke-width="0.5"/>
<path d="M21.9002 22.8929C21.3756 22.8929 20.9502 23.3183 20.9502 23.8429V25.7429C20.9502 26.2675 21.3756 26.6929 21.9002 26.6929H23.8002C24.3248 26.6929 24.7502 26.2675 24.7502 25.7429V23.8429C24.7502 23.3183 24.3248 22.8929 23.8002 22.8929H21.9002Z" fill="#0156AD" stroke="white" stroke-width="0.5"/>
<path d="M20.9502 29.5429C20.9502 29.0183 21.3756 28.5929 21.9002 28.5929H23.8002C24.3248 28.5929 24.7502 29.0183 24.7502 29.5429V31.4429C24.7502 31.9675 24.3248 32.3929 23.8002 32.3929H21.9002C21.3756 32.3929 20.9502 31.9675 20.9502 31.4429V29.5429Z" fill="#0156AD" stroke="white" stroke-width="0.5"/>
<path fill-rule="evenodd" clip-rule="evenodd" d="M9.55 13.3929C9.55 12.3436 10.4007 11.4929 11.45 11.4929H28.55C29.5994 11.4929 30.45 12.3436 30.45 13.3929V17.1929H35.2C36.2494 17.1929 37.1 18.0436 37.1 19.0929V36.1929H38.05C38.5746 36.1929 39 36.6183 39 37.1429C39 37.6675 38.5746 38.0929 38.05 38.0929H1.95C1.42533 38.0929 1 37.6675 1 37.1429C1 36.6183 1.42533 36.1929 1.95 36.1929H2.9V19.0929C2.9 18.0436 3.75067 17.1929 4.8 17.1929H9.55V13.3929ZM28.55 13.3929V36.1929H11.45V13.3929H28.55ZM35.2 19.0929H30.45V36.1929H35.2V19.0929ZM9.55 19.0929H4.8V36.1929H9.55V19.0929Z" fill="#0156AD" stroke="white" stroke-width="0.5"/>
</svg>
