<svg width="34" height="31" viewBox="0 0 34 31" fill="none" xmlns="http://www.w3.org/2000/svg">
<path d="M9.62012 10.1923C9.62012 9.56684 10.1271 9.05981 10.7526 9.05981H16.7924C17.4179 9.05981 17.9249 9.56684 17.9249 10.1923C17.9249 10.8177 17.4179 11.3248 16.7924 11.3248H10.7526C10.1271 11.3248 9.62012 10.8177 9.62012 10.1923Z" fill="#7C7C7C"/>
<path d="M9.62012 16.2322C9.62012 15.6068 10.1271 15.0997 10.7526 15.0997H22.8323C23.4577 15.0997 23.9648 15.6068 23.9648 16.2322C23.9648 16.8576 23.4577 17.3647 22.8323 17.3647H10.7526C10.1271 17.3647 9.62012 16.8576 9.62012 16.2322Z" fill="#7C7C7C"/>
<path fill-rule="evenodd" clip-rule="evenodd" d="M13.723 0H19.8643C21.9355 0 23.5593 -1.50301e-05 24.8645 0.106619C26.1934 0.2152 27.2913 0.439973 28.285 0.946309C29.9188 1.77871 31.247 3.10693 32.0794 4.7406C32.5857 5.73437 32.8106 6.83227 32.9191 8.16126C33.0257 9.46638 33.0257 11.0902 33.0257 13.1615V15.0003V15.2221C33.026 17.5604 33.0263 18.9869 32.675 20.185C31.843 23.0226 29.6239 25.2416 26.7864 26.0736C25.5883 26.425 24.1618 26.4247 21.8235 26.4244C21.7504 26.4244 21.6765 26.4244 21.6017 26.4244H20.773L20.6819 26.4245C19.3725 26.4328 18.097 26.8417 17.0266 27.5959L16.9523 27.6488L13.0103 30.4646C10.7385 32.0872 7.7533 29.7439 8.79013 27.1517C8.92948 26.8034 8.67291 26.4244 8.29768 26.4244H7.38906C3.61831 26.4244 0.561523 23.3676 0.561523 19.5968V13.1615C0.561523 11.0903 0.561508 9.4664 0.668142 8.16126C0.776723 6.83227 1.0015 5.73437 1.50783 4.7406C2.34023 3.10693 3.66845 1.77871 5.30213 0.946309C6.2959 0.439973 7.39379 0.2152 8.72278 0.106619C10.0279 -1.50301e-05 11.6518 0 13.723 0ZM8.90721 2.36404C7.7183 2.46118 6.95164 2.64786 6.3304 2.96439C5.1229 3.57964 4.14116 4.56137 3.52591 5.76887C3.20938 6.39012 3.0227 7.15677 2.92557 8.34569C2.82734 9.54783 2.82647 11.0793 2.82647 13.2122V19.5968C2.82647 22.1167 4.86921 24.1594 7.38906 24.1594H8.29768C10.2753 24.1594 11.6275 26.1568 10.8931 27.9929C10.6964 28.4847 11.2628 28.9294 11.6938 28.6215L15.7219 25.7444C17.1701 24.724 18.8958 24.1709 20.6674 24.1596L20.773 24.1594H21.6017C24.2319 24.1594 25.3042 24.1479 26.1491 23.9001C28.2464 23.2851 29.8865 21.645 30.5015 19.5477C30.7493 18.7029 30.7608 17.6305 30.7608 15.0003V13.2122C30.7608 11.0793 30.7599 9.54783 30.6617 8.34569C30.5645 7.15677 30.3779 6.39012 30.0614 5.76887C29.4461 4.56137 28.4643 3.57964 27.2569 2.96439C26.6356 2.64786 25.869 2.46118 24.68 2.36404C23.4779 2.26582 21.9464 2.26494 19.8136 2.26494H13.7737C11.6409 2.26494 10.1094 2.26582 8.90721 2.36404Z" fill="#7C7C7C"/>
</svg>
