<svg width="22" height="24" viewBox="0 0 22 24" fill="none" xmlns="http://www.w3.org/2000/svg">
<path d="M10 24.0001C7.93311 24.0001 6.25 22.3181 6.25 20.2501C6.25 19.8361 6.586 19.5001 7 19.5001C7.41401 19.5001 7.75001 19.8361 7.75001 20.2501C7.75001 21.4912 8.76002 22.5001 10 22.5001C11.24 22.5001 12.25 21.4912 12.25 20.2501C12.25 19.8361 12.586 19.5001 13 19.5001C13.414 19.5001 13.75 19.8361 13.75 20.2501C13.75 22.3181 12.0671 24.0001 10 24.0001Z" fill="white"/>
<path d="M18.25 21.0001H1.74995C0.784977 21.0001 0 20.2151 0 19.2501C0 18.738 0.223024 18.2531 0.611942 17.92C0.637028 17.8981 0.663944 17.8781 0.691959 17.86C2.15992 16.579 3.00002 14.736 3.00002 12.7899V9.99995C3.00002 6.14006 6.14103 2.99997 9.99999 2.99997C10.16 2.99997 10.3331 3.0029 10.4931 3.03C10.902 3.09793 11.1781 3.48502 11.11 3.89298C11.0421 4.30094 10.648 4.57707 10.247 4.50895C10.167 4.49595 10.0791 4.49998 9.99999 4.49998C6.96812 4.49998 4.50002 6.96697 4.50002 9.99995V12.7899C4.50002 15.206 3.44094 17.4921 1.59705 19.061C1.58204 19.0731 1.56904 19.084 1.55293 19.095C1.52601 19.1291 1.50001 19.1811 1.50001 19.2501C1.50001 19.386 1.61408 19.5001 1.74995 19.5001H18.25C18.3861 19.5001 18.5002 19.386 18.5002 19.2501C18.5002 19.18 18.4742 19.1291 18.4461 19.095C18.4311 19.084 18.4181 19.0731 18.4031 19.061C16.5581 17.491 15.5001 15.206 15.5001 12.7899V11.7001C15.5001 11.2861 15.8361 10.9501 16.2502 10.9501C16.6642 10.9501 17.0002 11.2861 17.0002 11.7001V12.7899C17.0002 14.7371 17.8412 16.581 19.3111 17.8631C19.3381 17.881 19.3641 17.9001 19.388 17.9211C19.7771 18.2531 20.0002 18.738 20.0002 19.2501C20.0002 20.2151 19.2152 21.0001 18.25 21.0001Z" fill="white"/>
<path d="M17.0001 9.99999C14.2431 9.99999 12 7.75712 12 5.00009C12 2.24305 14.2431 0 17.0001 0C19.7571 0 22 2.24305 22 5.00009C22 7.75712 19.7571 9.99999 17.0001 9.99999ZM17.0001 1.50001C15.07 1.50001 13.5 3.06996 13.5 5.00009C13.5 6.93003 15.07 8.49999 17.0001 8.49999C18.93 8.49999 20.5 6.93003 20.5 5.00009C20.5 3.06996 18.93 1.50001 17.0001 1.50001Z" fill="white"/>
<circle cx="17" cy="5" r="5" fill="#F01010"/>
</svg>
