<svg width="49" height="48" viewBox="0 0 49 48" fill="none" xmlns="http://www.w3.org/2000/svg">
<g clip-path="url(#clip0_2402_846)">
<path d="M46.9661 42.3H45.3995V26.6334H46.1828C46.3905 26.6334 46.5899 26.5509 46.7367 26.404C46.8836 26.2571 46.9661 26.0578 46.9661 25.8501V22.7167C46.9661 22.509 46.8836 22.3097 46.7367 22.1628C46.5899 22.0159 46.3905 21.9334 46.1828 21.9334H34.4328V19.8026L35.177 20.2335C35.554 20.4454 36.0313 20.3167 36.2502 19.9436L37.8169 17.2334C37.9214 17.053 37.9498 16.8379 37.8952 16.6365C37.8407 16.4351 37.7081 16.2637 37.527 16.1602L25.0331 8.94584V5.64009C25.2813 5.76179 25.5128 5.91426 25.7223 6.09435C26.3881 6.70878 27.2607 7.05011 28.1664 7.05011C29.0721 7.05011 29.9446 6.7088 30.6105 6.09435C30.998 5.69919 31.5295 5.47853 32.0831 5.48343C32.2908 5.48343 32.4901 5.4009 32.637 5.25402C32.7839 5.10715 32.8664 4.90782 32.8664 4.70009V0.783437C32.8664 0.575715 32.7839 0.376382 32.637 0.229509C32.4901 0.082637 32.2908 0.000105191 32.0831 0.000105191C31.1759 -0.00688884 30.301 0.33512 29.639 0.955859C29.2487 1.34683 28.7189 1.56679 28.1664 1.56679C27.6139 1.56679 27.0841 1.34683 26.6938 0.955859C26.0318 0.335138 25.1569 -0.00687765 24.2497 0.000105191C23.8172 0.000105191 23.4664 0.350859 23.4664 0.783437V8.94584L10.9725 16.1602C10.7914 16.2637 10.6588 16.4351 10.6043 16.6365C10.5497 16.8379 10.578 17.053 10.6826 17.2334L12.2493 19.9436C12.4675 20.3178 12.9459 20.4468 13.3225 20.2335L14.0666 19.8026V21.9334H2.31666C1.88408 21.9334 1.53333 22.2841 1.53333 22.7167V25.8501C1.53333 26.0578 1.61586 26.2571 1.76274 26.404C1.90961 26.5509 2.10894 26.6334 2.31666 26.6334H3.09999V42.3H1.53333C1.10075 42.3 0.75 42.6508 0.75 43.0833V46.2167C0.75 46.4244 0.83253 46.6237 0.979404 46.7706C1.12628 46.9175 1.32561 47 1.53333 47H46.9666C47.1743 47 47.3736 46.9175 47.5205 46.7706C47.6673 46.6237 47.7499 46.4244 47.7499 46.2167V43.0833C47.7499 42.8756 47.6674 42.6763 47.5205 42.5294C47.3736 42.3825 47.1743 42.3 46.9666 42.3H46.9661ZM25.0329 1.71539C25.2804 1.84058 25.512 1.99585 25.7221 2.17735C26.388 2.79177 27.2605 3.1331 28.1662 3.1331C29.0719 3.1331 29.9444 2.79179 30.6103 2.17735C30.8205 1.99585 31.052 1.84058 31.2995 1.71539V3.99475C30.6809 4.14267 30.1095 4.44446 29.6388 4.87215C29.2485 5.26312 28.7188 5.48308 28.1662 5.48308C27.6137 5.48308 27.0839 5.26312 26.6936 4.87215C26.2229 4.44447 25.6515 4.14267 25.0329 3.99475L25.0329 1.71539ZM45.3995 23.5001V25.0667H34.4328V23.5001H45.3995ZM43.8328 26.6334V42.3H34.4328V26.6334H43.8328ZM13.2202 18.479L12.4369 17.1316L24.2495 10.3009L36.0622 17.1316L35.2788 18.479L24.6416 12.3375C24.3982 12.2019 24.1017 12.2019 23.8583 12.3375L13.2202 18.479ZM18.7661 31.3337V29.7671H29.7328V31.3337H18.7661ZM28.1661 32.9004V42.3004H25.0328V32.9004H28.1661ZM23.4661 32.9004V42.3004H20.3328V32.9004H23.4661ZM29.7328 32.9004H30.5161C30.7238 32.9004 30.9231 32.8179 31.07 32.671C31.2169 32.5241 31.2994 32.3248 31.2994 32.1171V28.9837C31.2994 28.776 31.2169 28.5767 31.07 28.4298C30.9231 28.2829 30.7238 28.2004 30.5161 28.2004H17.9828C17.5502 28.2004 17.1995 28.5512 17.1995 28.9837V32.1171C17.1995 32.3248 17.282 32.5241 17.4289 32.671C17.5757 32.8179 17.7751 32.9004 17.9828 32.9004H18.7661V42.3004H15.6328V18.8944L24.2494 13.9203L32.8661 18.8944V42.3004H29.7328V32.9004ZM3.09949 23.5004H14.0661V25.0671H3.09949V23.5004ZM14.0661 26.6337V42.3004H4.66615V26.6337H14.0661ZM46.1827 45.4337H2.31616V43.867H46.1827V45.4337Z" fill="#263643" stroke="black"/>
<path d="M37.5656 32.8956H40.6989C40.9066 32.8956 41.106 32.8131 41.2528 32.6662C41.3997 32.5193 41.4822 32.32 41.4822 32.1122V28.9789C41.4822 28.7712 41.3997 28.5718 41.2528 28.425C41.106 28.2781 40.9066 28.1956 40.6989 28.1956H37.5656C37.133 28.1956 36.7823 28.5463 36.7823 28.9789V32.1122C36.7823 32.32 36.8648 32.5193 37.0117 32.6662C37.1585 32.8131 37.3579 32.8956 37.5656 32.8956ZM38.3489 29.7622H39.9156V31.3289H38.3489V29.7622Z" fill="#263643" stroke="black"/>
<path d="M37.5656 39.1577H40.6989C40.9066 39.1577 41.106 39.0752 41.2528 38.9283C41.3997 38.7814 41.4822 38.5821 41.4822 38.3744V35.2411C41.4822 35.0334 41.3997 34.834 41.2528 34.6872C41.106 34.5403 40.9066 34.4578 40.6989 34.4578H37.5656C37.133 34.4578 36.7823 34.8085 36.7823 35.2411V38.3744C36.7823 38.5821 36.8648 38.7814 37.0117 38.9283C37.1585 39.0752 37.3579 39.1577 37.5656 39.1577ZM38.3489 36.0244H39.9156V37.5911H38.3489V36.0244Z" fill="#263643" stroke="black"/>
<path d="M10.9378 28.1956H7.80445C7.37187 28.1956 7.02112 28.5463 7.02112 28.9789V32.1122C7.02112 32.32 7.10365 32.5193 7.25052 32.6662C7.3974 32.8131 7.59673 32.8956 7.80445 32.8956H10.9378C11.1455 32.8956 11.3448 32.8131 11.4917 32.6662C11.6386 32.5193 11.7211 32.32 11.7211 32.1122V28.9789C11.7211 28.7712 11.6386 28.5718 11.4917 28.425C11.3448 28.2781 11.1455 28.1956 10.9378 28.1956ZM10.1544 31.3289H8.58777V29.7622H10.1544V31.3289Z" fill="#263643" stroke="black"/>
<path d="M10.9378 34.4578H7.80445C7.37187 34.4578 7.02112 34.8085 7.02112 35.2411V38.3744C7.02112 38.5821 7.10365 38.7814 7.25052 38.9283C7.3974 39.0752 7.59673 39.1577 7.80445 39.1577H10.9378C11.1455 39.1577 11.3448 39.0752 11.4917 38.9283C11.6386 38.7814 11.7211 38.5821 11.7211 38.3744V35.2411C11.7211 35.0334 11.6386 34.834 11.4917 34.6872C11.3448 34.5403 11.1455 34.4578 10.9378 34.4578ZM10.1544 37.5911H8.58777V36.0244H10.1544V37.5911Z" fill="#263643" stroke="black"/>
<path d="M24.2534 25.8455C25.5001 25.8455 26.6953 25.3504 27.5769 24.4691C28.4582 23.5875 28.9534 22.3923 28.9534 21.1456C28.9534 19.8988 28.4582 18.7036 27.5769 17.822C26.6953 16.9407 25.5001 16.4456 24.2534 16.4456C23.0067 16.4456 21.8114 16.9407 20.9298 17.822C20.0486 18.7036 19.5534 19.8988 19.5534 21.1456C19.5548 22.3915 20.0503 23.5865 20.9312 24.4677C21.8125 25.3486 23.0074 25.8441 24.2534 25.8455ZM24.2534 18.0122C25.0843 18.0122 25.8813 18.3423 26.4691 18.9298C27.0566 19.5177 27.3867 20.3147 27.3867 21.1456C27.3867 21.9764 27.0566 22.7735 26.4691 23.3613C25.8812 23.9488 25.0842 24.2789 24.2534 24.2789C23.4225 24.2789 22.6255 23.9488 22.0377 23.3613C21.4502 22.7734 21.1201 21.9764 21.1201 21.1456C21.1201 20.3147 21.4502 19.5177 22.0377 18.9298C22.6255 18.3423 23.4225 18.0122 24.2534 18.0122Z" fill="#263643" stroke="black"/>
<path d="M23.4693 18.7955V20.8214L22.9154 21.3753V21.375C22.7643 21.5211 22.6783 21.7215 22.6765 21.9317C22.6744 22.1419 22.7573 22.344 22.9059 22.4923C23.0542 22.6409 23.2563 22.7238 23.4665 22.7217C23.6767 22.7199 23.877 22.6339 24.0232 22.4828L24.8066 21.6995C24.9534 21.5526 25.036 21.3533 25.036 21.1456V18.7955C25.036 18.363 24.6852 18.0122 24.2526 18.0122C23.8201 18.0122 23.4693 18.363 23.4693 18.7955V18.7955Z" fill="#263643" stroke="black"/>
</g>
<defs>
<clipPath id="clip0_2402_846">
<rect width="48" height="48" fill="white" transform="translate(0.75)"/>
</clipPath>
</defs>
</svg>
