<svg width="49" height="48" viewBox="0 0 49 48" fill="none" xmlns="http://www.w3.org/2000/svg">
<g clip-path="url(#clip0_2402_838)">
<path fill-rule="evenodd" clip-rule="evenodd" d="M29.4299 33.2483C39.718 34.7218 42.3884 40.7665 42.3884 48.001H5.96334C5.96334 40.7661 8.63398 34.7216 18.9218 33.2483C20.0687 35.1009 21.7521 36.1972 24.1757 36.1972C26.5993 36.1972 28.2826 35.1013 29.4295 33.2483H29.4299Z" fill="#38AEAF"/>
<path fill-rule="evenodd" clip-rule="evenodd" d="M32.4272 12.8247C34.2858 14.8302 35.4222 17.5138 35.4222 20.4635C35.4222 26.6723 30.3889 31.7059 24.1799 31.7059C17.9708 31.7059 12.9375 26.6726 12.9375 20.4635C12.9375 17.5138 14.074 14.8302 15.9325 12.8247C18.3227 13.1327 21.1495 13.3109 24.1796 13.3109C27.2096 13.3109 30.0365 13.1327 32.4266 12.8247H32.4272Z" fill="#38AEAF"/>
<path fill-rule="evenodd" clip-rule="evenodd" d="M32.4299 8.65088V11.3914C30.0394 11.6994 27.2122 11.8776 24.1818 11.8776C21.1515 11.8776 18.3242 11.6994 15.9337 11.3914V8.65088L21.6924 9.98263C23.4078 10.3792 24.9557 10.3792 26.671 9.98263L32.4299 8.65088Z" fill="#38AEAF"/>
<path fill-rule="evenodd" clip-rule="evenodd" d="M5.66313 4.00439L21.691 0.297701C23.4063 -0.0992336 24.9543 -0.0992336 26.6695 0.297701L42.6974 4.00439C42.9414 4.06093 43.1096 4.27223 43.1096 4.52296C43.1096 4.7737 42.9414 4.985 42.6974 5.04154L39.3843 5.80788V12.4247L41.1692 15.5165C41.4173 15.945 41.2711 16.4942 40.8425 16.7426C40.414 16.9907 39.8649 16.8445 39.6164 16.416L39.3843 16.0139V16.4774C39.3843 16.974 38.9818 17.3769 38.4848 17.3769C37.9881 17.3769 37.5852 16.9744 37.5852 16.4774V16.0135L37.3531 16.4156C37.105 16.8442 36.5559 16.9907 36.127 16.7422C35.6984 16.4941 35.5519 15.945 35.8004 15.5161L37.5852 12.4243V6.22339L26.6686 8.74785C24.9532 9.14441 23.4053 9.14441 21.69 8.74785L5.66218 5.04116C5.41815 4.98462 5.25 4.77331 5.25 4.52258C5.25 4.27222 5.41814 4.06092 5.66255 4.00438L5.66313 4.00439Z" fill="#38AEAF"/>
</g>
<defs>
<clipPath id="clip0_2402_838">
<rect width="48" height="48" fill="white" transform="translate(0.25)"/>
</clipPath>
</defs>
</svg>
