<svg width="32" height="32" viewBox="0 0 32 32" fill="none" xmlns="http://www.w3.org/2000/svg">
<g clip-path="url(#clip0_2402_1442)">
<path d="M32.2188 9.37383C29.836 7.94338 23.9975 7.28066 19.6679 9.19765L19.5 9.25C19 9.30235 19.322 9.25 19 9.25C18.678 9.25 19.0834 9.33966 18.75 9.25L18.5011 9.19998C14.6497 7.56418 7.77394 7.58052 4.78352 9.37383C4.60851 9.47884 4.5 9.66902 4.5 9.87437V28.5426C4.5 28.7526 4.61318 28.9463 4.79519 29.0524C4.97837 29.1563 5.20239 29.1531 5.38324 29.0431C8.1858 27.363 14.4653 28.007 17.7323 29.0956C17.7918 29.1166 17.8536 29.1259 17.9166 29.1259H19.0834C19.1478 29.1259 19.2082 29.1155 19.2677 29.0956C22.5358 28.0073 28.8142 27.3621 31.6167 29.0431C31.7089 29.0991 31.813 29.1259 31.9166 29.1259C32.0158 29.1259 32.1149 29.1014 32.2048 29.0524C32.3877 28.9474 32.5 28.7546 32.5 28.5426V9.87437C32.5023 9.66902 32.395 9.48001 32.2188 9.37383Z" fill="#FCDE60"/>
<path d="M30.0004 5.0625H20.9012C19.3156 5.0625 17.8005 5.54962 16.5231 6.46875L16.0002 6.83956L15.4808 6.47131C14.1999 5.54963 12.6847 5.0625 11.0991 5.0625H2C1.65488 5.0625 1.375 5.34231 1.375 5.6875V24.3943C1.375 24.7395 1.65488 25.0193 2 25.0193H11.0991C12.4211 25.0193 13.6838 25.4251 14.7543 26.1952L15.6386 26.8224C15.7469 26.8991 15.8735 26.9376 16.0001 26.9376C16.1267 26.9376 16.2534 26.8992 16.3616 26.8224L17.2496 26.1928C18.3164 25.4251 19.5791 25.0193 20.9012 25.0193H30.0003C30.3454 25.0193 30.6253 24.7395 30.6253 24.3943V5.6875C30.6254 5.34231 30.3455 5.0625 30.0004 5.0625ZM11.0991 23.7693H2.625V6.3125H11.0991C12.4211 6.3125 13.6838 6.71825 14.7543 7.48844L15.1904 7.79769V24.9802C13.9734 24.1874 12.5666 23.7693 11.0991 23.7693ZM29.3754 23.7693H20.9012C19.3156 23.7693 17.8005 24.2564 16.5231 25.1756L16.4404 25.2342V8.05975L17.2496 7.48594C18.3166 6.71825 19.5792 6.3125 20.9012 6.3125H29.3754V23.7693Z" fill="black"/>
<path d="M5.125 11.9375H7.34912C7.69425 11.9375 7.97412 11.6577 7.97412 11.3125C7.97412 10.9673 7.69425 10.6875 7.34912 10.6875H5.125C4.77987 10.6875 4.5 10.9673 4.5 11.3125C4.5 11.6577 4.77987 11.9375 5.125 11.9375Z" fill="black"/>
<path d="M12.3491 13.8125H5.125C4.77988 13.8125 4.5 14.0923 4.5 14.4375C4.5 14.7827 4.77988 15.0625 5.125 15.0625H12.3491C12.6942 15.0625 12.9741 14.7827 12.9741 14.4375C12.9741 14.0923 12.6942 13.8125 12.3491 13.8125Z" fill="black"/>
<path d="M12.3491 17.5625H5.125C4.77988 17.5625 4.5 17.8423 4.5 18.1875C4.5 18.5327 4.77988 18.8125 5.125 18.8125H12.3491C12.6942 18.8125 12.9741 18.5327 12.9741 18.1875C12.9741 17.8423 12.6942 17.5625 12.3491 17.5625Z" fill="black"/>
</g>
<defs>
<clipPath id="clip0_2402_1442">
<rect width="32" height="32" fill="white"/>
</clipPath>
</defs>
</svg>
