<svg version="1.2" xmlns="http://www.w3.org/2000/svg" viewBox="0 0 28 28" width="28" height="28">
	<title>Ellipse 6-svg</title>
	<style>
		.s0 { fill: #0db87a } 
		.s1 { fill: #ffffff } 
	</style>
	<path id="Layer" class="s0" d="m14 28c-7.7 0-14-6.3-14-14 0-7.7 6.3-14 14-14 7.7 0 14 6.3 14 14 0 7.7-6.3 14-14 14z"/>
	<path id="Layer" class="s1" d="m20.7 9.3c-0.4-0.4-1-0.4-1.4 0l-7.5 7.3-3.1-3c-0.4-0.4-1-0.4-1.4 0-0.4 0.4-0.4 1 0 1.4l3.8 3.7c0.2 0.2 0.4 0.3 0.7 0.3 0.3 0 0.5-0.1 0.7-0.3l8.2-8c0.4-0.4 0.4-1 0-1.4z"/>
</svg>